<svg width="35" height="30" viewBox="0 0 35 30" fill="none" xmlns="http://www.w3.org/2000/svg">
<path d="M24.25 12.5H31.75C32.413 12.5 33.0489 12.2366 33.5178 11.7678C33.9866 11.2989 34.25 10.663 34.25 10V2.5C34.25 1.83696 33.9866 1.20107 33.5178 0.732233C33.0489 0.263392 32.413 0 31.75 0H24.25C23.587 0 22.9511 0.263392 22.4822 0.732233C22.0134 1.20107 21.75 1.83696 21.75 2.5V5H20.5C19.1752 5.00412 17.9058 5.53223 16.969 6.46902C16.0322 7.40581 15.5041 8.67519 15.5 10V13.75H11.75V11.875C11.75 11.212 11.4866 10.5761 11.0178 10.1072C10.5489 9.63839 9.91304 9.375 9.25 9.375H3C2.33696 9.375 1.70107 9.63839 1.23223 10.1072C0.763392 10.5761 0.5 11.212 0.5 11.875V18.125C0.5 18.788 0.763392 19.4239 1.23223 19.8928C1.70107 20.3616 2.33696 20.625 3 20.625H9.25C9.91304 20.625 10.5489 20.3616 11.0178 19.8928C11.4866 19.4239 11.75 18.788 11.75 18.125V16.25H15.5V20C15.5041 21.3248 16.0322 22.5942 16.969 23.531C17.9058 24.4678 19.1752 24.9959 20.5 25H21.75V27.5C21.75 28.163 22.0134 28.7989 22.4822 29.2678C22.9511 29.7366 23.587 30 24.25 30H31.75C32.413 30 33.0489 29.7366 33.5178 29.2678C33.9866 28.7989 34.25 28.163 34.25 27.5V20C34.25 19.337 33.9866 18.7011 33.5178 18.2322C33.0489 17.7634 32.413 17.5 31.75 17.5H24.25C23.587 17.5 22.9511 17.7634 22.4822 18.2322C22.0134 18.7011 21.75 19.337 21.75 20V22.5H20.5C19.837 22.5 19.2011 22.2366 18.7322 21.7678C18.2634 21.2989 18 20.663 18 20V10C18 9.33696 18.2634 8.70107 18.7322 8.23223C19.2011 7.76339 19.837 7.5 20.5 7.5H21.75V10C21.75 10.663 22.0134 11.2989 22.4822 11.7678C22.9511 12.2366 23.587 12.5 24.25 12.5ZM9.25 18.125H3V11.875H9.25V18.125ZM24.25 20H31.75V27.5H24.25V20ZM24.25 2.5H31.75V10H24.25V2.5Z" fill="white"/>
</svg>
