<svg width="40" height="40" viewBox="0 0 40 40" fill="none" xmlns="http://www.w3.org/2000/svg">
<path d="M26.25 17.5H33.75C34.413 17.5 35.0489 17.2366 35.5178 16.7678C35.9866 16.2989 36.25 15.663 36.25 15V7.5C36.25 6.83696 35.9866 6.20107 35.5178 5.73223C35.0489 5.26339 34.413 5 33.75 5H26.25C25.587 5 24.9511 5.26339 24.4822 5.73223C24.0134 6.20107 23.75 6.83696 23.75 7.5V10H22.5C21.1752 10.0041 19.9058 10.5322 18.969 11.469C18.0322 12.4058 17.5041 13.6752 17.5 15V18.75H13.75V16.875C13.75 16.212 13.4866 15.5761 13.0178 15.1072C12.5489 14.6384 11.913 14.375 11.25 14.375H5C4.33696 14.375 3.70107 14.6384 3.23223 15.1072C2.76339 15.5761 2.5 16.212 2.5 16.875V23.125C2.5 23.788 2.76339 24.4239 3.23223 24.8928C3.70107 25.3616 4.33696 25.625 5 25.625H11.25C11.913 25.625 12.5489 25.3616 13.0178 24.8928C13.4866 24.4239 13.75 23.788 13.75 23.125V21.25H17.5V25C17.5041 26.3248 18.0322 27.5942 18.969 28.531C19.9058 29.4678 21.1752 29.9959 22.5 30H23.75V32.5C23.75 33.163 24.0134 33.7989 24.4822 34.2678C24.9511 34.7366 25.587 35 26.25 35H33.75C34.413 35 35.0489 34.7366 35.5178 34.2678C35.9866 33.7989 36.25 33.163 36.25 32.5V25C36.25 24.337 35.9866 23.7011 35.5178 23.2322C35.0489 22.7634 34.413 22.5 33.75 22.5H26.25C25.587 22.5 24.9511 22.7634 24.4822 23.2322C24.0134 23.7011 23.75 24.337 23.75 25V27.5H22.5C21.837 27.5 21.2011 27.2366 20.7322 26.7678C20.2634 26.2989 20 25.663 20 25V15C20 14.337 20.2634 13.7011 20.7322 13.2322C21.2011 12.7634 21.837 12.5 22.5 12.5H23.75V15C23.75 15.663 24.0134 16.2989 24.4822 16.7678C24.9511 17.2366 25.587 17.5 26.25 17.5ZM11.25 23.125H5V16.875H11.25V23.125ZM26.25 25H33.75V32.5H26.25V25ZM26.25 7.5H33.75V15H26.25V7.5Z" fill="black"/>
</svg>
