<svg id="svg" version="1.1" xmlns="http://www.w3.org/2000/svg" xmlns:xlink="http://www.w3.org/1999/xlink" width="400" height="400" viewBox="0, 0, 400,400"><g id="svgg"><path id="path0" d="M40.300 154.835 C 39.549 156.155,39.340 159.200,40.000 159.200 C 40.220 159.200,40.400 159.451,40.400 159.757 C 40.400 160.734,41.390 160.800,56.033 160.800 L 70.400 160.800 70.398 182.300 C 70.395 202.792,70.142 208.419,69.205 208.732 C 68.982 208.806,68.800 209.106,68.800 209.397 C 68.800 210.195,66.728 213.200,66.178 213.200 C 65.914 213.200,65.478 213.465,65.209 213.789 C 64.940 214.114,64.108 214.494,63.360 214.634 C 62.612 214.774,62.000 215.049,62.000 215.245 C 62.000 215.440,60.200 215.600,58.000 215.600 C 55.800 215.600,54.000 215.440,54.000 215.245 C 54.000 215.050,53.190 214.769,52.200 214.621 C 51.210 214.472,50.400 214.194,50.400 214.002 C 50.400 213.811,50.003 213.528,49.518 213.374 C 48.220 212.962,45.731 210.210,45.200 208.599 C 44.946 207.830,44.572 207.200,44.369 207.200 C 44.166 207.200,44.000 206.930,44.000 206.600 C 44.000 206.150,43.525 206.001,42.100 206.005 C 39.298 206.014,38.426 206.353,38.134 207.548 C 37.993 208.127,37.691 208.721,37.464 208.870 C 37.182 209.054,37.187 209.307,37.480 209.670 C 37.715 209.961,38.033 210.785,38.186 211.500 C 38.338 212.215,38.617 212.800,38.805 212.800 C 38.993 212.800,39.266 213.179,39.414 213.643 C 40.400 216.752,46.239 221.253,50.060 221.850 C 51.017 221.999,51.918 222.303,52.063 222.524 C 52.469 223.147,63.293 223.120,63.501 222.496 C 63.592 222.223,64.075 222.000,64.574 222.000 C 65.669 222.000,68.014 221.217,68.686 220.627 C 69.964 219.505,70.391 219.200,70.684 219.200 C 71.150 219.200,73.200 216.947,73.200 216.436 C 73.200 216.196,73.372 216.000,73.583 216.000 C 74.145 216.000,76.000 212.673,76.000 211.665 C 76.000 211.189,76.169 210.800,76.375 210.800 C 76.582 210.800,76.873 209.988,77.022 208.995 C 77.171 208.002,77.452 207.092,77.646 206.971 C 77.845 206.848,78.000 195.686,78.000 181.448 L 78.000 156.144 76.864 154.872 L 75.729 153.600 58.364 153.603 L 41.000 153.605 40.300 154.835 M161.600 153.953 C 161.600 154.148,161.240 154.401,160.800 154.516 C 160.217 154.668,160.000 155.062,160.000 155.963 C 160.000 156.643,159.820 157.200,159.600 157.200 C 159.337 157.200,159.200 167.800,159.200 188.200 C 159.200 208.600,159.337 219.200,159.600 219.200 C 159.820 219.200,160.000 219.545,160.000 219.967 C 160.000 221.139,160.428 222.000,161.009 222.000 C 161.298 222.000,161.609 222.225,161.701 222.500 C 161.917 223.145,186.690 223.203,187.124 222.560 C 187.276 222.335,188.746 221.948,190.392 221.699 C 192.038 221.450,193.448 221.056,193.526 220.823 C 193.603 220.591,193.894 220.400,194.172 220.400 C 194.450 220.400,195.093 220.040,195.600 219.600 C 196.107 219.160,196.722 218.800,196.966 218.800 C 197.209 218.800,197.857 218.246,198.404 217.570 C 198.952 216.893,199.715 215.965,200.100 215.508 C 200.485 215.051,200.800 214.512,200.800 214.310 C 200.800 214.108,201.045 213.698,201.345 213.398 C 201.644 213.099,202.013 212.082,202.163 211.139 C 202.314 210.196,202.652 209.291,202.915 209.129 C 203.511 208.761,203.528 198.060,202.934 197.663 C 202.718 197.518,202.309 196.557,202.026 195.526 C 201.742 194.495,201.261 193.555,200.955 193.438 C 200.650 193.321,200.400 193.031,200.400 192.794 C 200.400 192.290,196.598 188.400,196.106 188.400 C 195.923 188.400,195.299 188.018,194.718 187.551 C 193.701 186.732,193.600 185.607,194.543 185.593 C 195.098 185.585,196.800 183.845,196.800 183.286 C 196.800 183.066,197.053 182.788,197.362 182.670 C 197.672 182.551,198.046 181.902,198.194 181.227 C 198.342 180.552,198.615 180.000,198.800 180.000 C 198.985 180.000,199.263 179.415,199.418 178.700 C 199.574 177.985,199.903 177.272,200.150 177.115 C 200.751 176.733,200.732 167.088,200.129 166.341 C 199.889 166.044,199.567 165.215,199.414 164.500 C 199.262 163.785,198.990 163.200,198.812 163.200 C 198.633 163.200,198.379 162.770,198.247 162.244 C 197.953 161.072,194.233 157.200,193.402 157.200 C 193.071 157.200,192.800 157.054,192.800 156.875 C 192.800 156.262,188.913 154.852,186.456 154.575 C 185.105 154.422,184.000 154.140,184.000 153.948 C 184.000 153.757,178.960 153.600,172.800 153.600 C 166.586 153.600,161.600 153.757,161.600 153.953 M268.700 154.727 L 267.600 155.809 267.600 188.238 L 267.600 220.668 268.900 221.834 L 270.200 223.000 282.729 222.977 C 291.187 222.962,295.345 222.815,295.529 222.526 C 295.678 222.290,296.790 221.968,298.000 221.810 C 299.210 221.653,300.599 221.271,301.086 220.962 C 301.573 220.653,302.254 220.400,302.598 220.400 C 302.943 220.400,303.329 220.130,303.455 219.800 C 303.582 219.470,303.915 219.200,304.196 219.200 C 304.865 219.200,308.000 216.057,308.000 215.386 C 308.000 215.100,308.135 214.807,308.300 214.733 C 308.952 214.443,310.426 211.119,310.661 209.410 C 310.797 208.414,311.064 207.600,311.254 207.600 C 311.444 207.600,311.600 205.800,311.600 203.600 C 311.600 201.400,311.445 199.600,311.256 199.600 C 311.066 199.600,310.804 198.694,310.673 197.586 C 310.542 196.478,310.067 195.055,309.617 194.424 C 309.168 193.793,308.800 193.169,308.800 193.038 C 308.800 192.739,304.444 188.400,304.144 188.400 C 304.023 188.400,303.400 188.027,302.759 187.571 L 301.595 186.742 303.398 185.063 C 304.389 184.140,305.200 183.178,305.200 182.926 C 305.200 182.673,305.343 182.407,305.517 182.333 C 306.252 182.024,307.620 179.168,307.855 177.452 C 307.995 176.433,308.264 175.600,308.454 175.600 C 308.644 175.600,308.800 173.980,308.800 172.000 C 308.800 170.020,308.643 168.400,308.452 168.400 C 308.261 168.400,308.016 167.615,307.907 166.654 C 307.547 163.458,303.216 157.200,301.364 157.200 C 301.054 157.200,300.800 157.034,300.800 156.832 C 300.800 156.629,300.260 156.345,299.600 156.200 C 298.940 156.055,298.400 155.802,298.400 155.637 C 298.400 155.264,294.747 154.400,293.169 154.400 C 292.526 154.400,292.000 154.220,292.000 154.000 C 292.000 153.742,288.049 153.608,280.900 153.623 L 269.800 153.646 268.700 154.727 M319.600 153.957 C 319.600 154.153,319.158 154.424,318.618 154.560 C 317.148 154.929,317.158 154.684,317.284 189.200 L 317.400 221.000 318.400 222.000 L 319.399 223.000 337.000 223.123 C 355.449 223.252,358.000 223.137,358.000 222.175 C 358.000 221.859,358.180 221.600,358.400 221.600 C 358.620 221.600,358.800 220.597,358.800 219.371 C 358.800 215.588,359.912 215.817,340.929 215.683 L 324.400 215.567 324.400 188.183 L 324.400 160.800 340.711 160.800 C 359.633 160.800,358.800 160.958,358.800 157.377 C 358.800 153.353,360.132 153.600,338.400 153.600 C 327.657 153.600,319.600 153.753,319.600 153.957 M99.600 155.070 C 99.050 155.184,98.420 155.419,98.200 155.592 C 97.980 155.766,97.215 156.033,96.500 156.186 C 95.785 156.338,95.200 156.593,95.200 156.751 C 95.200 156.910,94.570 157.267,93.800 157.546 C 93.030 157.824,92.400 158.220,92.400 158.426 C 92.400 158.632,92.194 158.800,91.942 158.800 C 91.298 158.800,86.879 163.519,86.557 164.549 C 86.412 165.017,86.172 165.490,86.025 165.600 C 83.608 167.410,82.877 180.587,84.971 184.604 C 85.314 185.262,85.596 186.025,85.598 186.300 C 85.599 186.575,85.759 186.800,85.953 186.800 C 86.148 186.800,86.418 187.115,86.554 187.500 C 86.689 187.885,86.905 188.425,87.034 188.700 C 87.206 189.071,86.638 189.200,84.833 189.200 L 82.400 189.200 82.400 190.600 L 82.400 192.000 88.000 192.000 L 93.600 192.000 93.600 193.200 C 93.600 194.200,94.400 195.200,98.400 199.200 C 101.040 201.840,103.200 204.097,103.200 204.216 C 103.200 205.180,118.029 219.200,119.047 219.199 C 120.099 219.198,127.200 213.085,127.200 212.181 C 127.200 212.037,130.080 209.037,133.600 205.514 C 137.120 201.991,140.000 198.979,140.000 198.822 C 140.000 198.664,140.430 198.305,140.956 198.024 C 141.482 197.742,142.132 197.102,142.400 196.600 C 142.668 196.098,143.318 195.458,143.844 195.176 C 144.558 194.794,144.800 194.328,144.800 193.332 L 144.800 192.000 149.800 192.000 L 154.800 192.000 154.800 190.600 L 154.800 189.200 152.800 189.200 C 150.891 189.200,150.164 188.730,151.362 188.270 C 151.672 188.151,152.046 187.502,152.194 186.827 C 152.342 186.152,152.609 185.600,152.787 185.600 C 152.965 185.600,153.237 184.925,153.391 184.100 C 153.545 183.275,153.880 182.347,154.136 182.039 C 154.766 181.277,154.779 170.486,154.150 170.086 C 153.903 169.929,153.574 169.215,153.418 168.500 C 153.263 167.785,152.999 167.200,152.832 167.200 C 152.664 167.200,152.312 166.483,152.049 165.606 C 151.727 164.532,150.695 163.140,148.886 161.339 C 145.581 158.049,145.246 157.777,144.019 157.398 C 143.479 157.231,142.791 156.848,142.490 156.547 C 142.189 156.246,141.521 156.000,141.005 156.000 C 140.489 156.000,139.992 155.775,139.900 155.500 C 139.681 154.841,128.956 154.797,127.562 155.450 C 127.033 155.698,126.150 156.110,125.600 156.366 C 123.168 157.498,120.391 159.894,119.880 161.300 C 119.508 162.322,119.016 162.164,118.012 160.700 C 117.521 159.985,116.504 158.950,115.750 158.400 C 114.996 157.850,113.996 157.085,113.528 156.700 C 113.060 156.315,112.270 156.000,111.772 156.000 C 111.274 156.000,110.795 155.784,110.707 155.521 C 110.540 155.020,101.599 154.657,99.600 155.070 M108.168 158.348 C 108.286 158.540,108.929 158.806,109.595 158.939 C 111.275 159.275,114.800 161.786,114.800 162.646 C 114.800 162.904,115.070 163.218,115.400 163.345 C 115.730 163.471,116.000 163.773,116.000 164.016 C 116.000 164.259,116.254 164.711,116.564 165.021 C 116.873 165.331,117.249 166.308,117.399 167.192 C 117.548 168.076,117.834 168.800,118.035 168.800 C 118.236 168.800,118.400 169.353,118.400 170.029 C 118.400 171.912,119.675 171.435,120.091 169.398 C 120.271 168.519,120.663 167.260,120.964 166.600 C 121.265 165.940,121.633 164.995,121.782 164.500 C 121.932 164.005,122.227 163.600,122.440 163.600 C 122.652 163.600,122.941 163.299,123.082 162.931 C 123.642 161.471,127.653 158.808,129.300 158.802 C 129.685 158.801,130.000 158.620,130.000 158.400 C 130.000 157.894,137.066 157.860,137.378 158.365 C 137.503 158.566,138.323 158.852,139.202 159.000 C 140.081 159.149,140.800 159.391,140.800 159.538 C 140.800 159.684,141.378 160.061,142.085 160.374 C 142.792 160.686,143.737 161.329,144.185 161.801 C 144.633 162.273,145.315 162.776,145.700 162.917 C 146.085 163.059,146.400 163.411,146.400 163.699 C 146.400 163.987,146.715 164.512,147.100 164.866 C 148.179 165.858,149.200 167.310,149.200 167.853 C 149.200 168.122,149.488 168.631,149.840 168.982 C 150.191 169.334,150.575 170.337,150.692 171.211 C 150.809 172.085,151.062 172.800,151.253 172.800 C 151.444 172.800,151.600 174.330,151.600 176.200 C 151.600 178.200,151.435 179.600,151.200 179.600 C 150.980 179.600,150.800 179.972,150.800 180.426 C 150.800 180.880,150.350 182.235,149.800 183.437 C 149.250 184.640,148.800 185.798,148.800 186.012 C 148.800 186.225,148.620 186.400,148.400 186.400 C 148.180 186.400,148.000 187.030,148.000 187.800 L 148.000 189.200 140.615 189.200 L 133.231 189.200 131.615 187.568 C 130.727 186.671,130.000 185.771,130.000 185.568 C 130.000 185.366,129.749 185.200,129.443 185.200 C 129.136 185.200,128.782 184.930,128.655 184.600 C 128.335 183.765,125.663 183.829,124.362 184.703 C 123.126 185.534,121.200 187.577,121.200 188.058 C 121.200 188.246,120.930 188.400,120.600 188.400 C 120.270 188.400,120.000 188.580,120.000 188.800 C 120.000 189.020,119.640 189.200,119.200 189.200 C 118.507 189.200,118.400 188.933,118.400 187.200 C 118.400 186.100,118.243 185.200,118.051 185.200 C 117.860 185.200,117.574 183.040,117.416 180.400 C 117.259 177.760,116.966 175.600,116.765 175.600 C 116.564 175.600,116.400 174.802,116.400 173.826 C 116.400 169.400,113.128 167.981,112.879 172.300 C 112.813 173.455,112.588 174.400,112.379 174.400 C 112.154 174.400,112.000 177.405,112.000 181.800 L 112.000 189.200 111.066 189.200 C 110.533 189.200,109.674 188.685,109.063 188.000 C 108.436 187.296,107.596 186.800,107.032 186.800 C 106.455 186.800,105.668 187.280,105.061 188.000 L 104.052 189.200 97.026 189.200 L 90.000 189.200 89.998 187.900 C 89.997 187.185,89.552 185.880,89.010 185.000 C 88.468 184.120,88.019 183.010,88.012 182.533 C 88.006 182.057,87.775 181.592,87.501 181.500 C 86.798 181.266,86.785 170.739,87.487 170.504 C 87.755 170.415,88.088 169.737,88.227 168.999 C 88.365 168.260,88.731 167.559,89.039 167.440 C 89.348 167.322,89.600 167.032,89.600 166.796 C 89.600 165.751,92.713 162.208,93.987 161.804 C 94.434 161.662,94.800 161.394,94.800 161.209 C 94.800 160.759,97.891 159.282,99.510 158.958 C 100.219 158.816,100.800 158.543,100.800 158.350 C 100.800 157.894,107.886 157.892,108.168 158.348 M180.800 161.144 C 180.800 161.333,181.802 161.592,183.028 161.718 C 184.253 161.844,185.468 162.116,185.728 162.322 C 185.987 162.527,186.875 162.913,187.700 163.179 C 188.525 163.445,189.200 163.828,189.200 164.031 C 189.200 164.234,189.470 164.400,189.800 164.400 C 190.130 164.400,190.400 164.660,190.400 164.977 C 190.400 165.295,190.759 165.806,191.197 166.113 C 191.636 166.420,192.108 167.240,192.247 167.936 C 192.386 168.631,192.658 169.200,192.850 169.200 C 193.043 169.200,193.200 170.550,193.200 172.200 C 193.200 173.850,193.040 175.200,192.845 175.200 C 192.649 175.200,192.374 175.813,192.234 176.561 C 192.093 177.310,191.713 178.024,191.389 178.149 C 191.065 178.273,190.797 178.606,190.793 178.887 C 190.777 180.051,186.745 182.800,185.053 182.800 C 184.474 182.800,184.000 182.962,184.000 183.160 C 184.000 183.359,180.877 183.584,177.061 183.660 C 168.844 183.826,168.800 183.845,168.800 187.222 C 168.800 189.195,168.921 189.584,169.600 189.800 C 170.040 189.940,170.400 190.200,170.400 190.378 C 170.400 190.556,173.711 190.777,177.759 190.868 C 181.904 190.961,185.354 191.213,185.659 191.445 C 185.956 191.671,186.965 192.097,187.900 192.392 C 188.835 192.687,189.600 193.079,189.600 193.264 C 189.600 193.449,189.830 193.600,190.111 193.600 C 190.392 193.600,190.915 193.915,191.272 194.300 C 191.629 194.685,192.389 195.424,192.961 195.942 C 193.532 196.460,194.000 197.135,194.000 197.442 C 194.000 197.749,194.172 198.000,194.382 198.000 C 194.592 198.000,194.882 198.630,195.026 199.400 C 195.171 200.170,195.449 200.800,195.645 200.800 C 195.840 200.800,196.000 202.240,196.000 204.000 C 196.000 205.760,195.840 207.200,195.645 207.200 C 195.449 207.200,195.174 207.813,195.034 208.561 C 194.893 209.310,194.513 210.024,194.189 210.149 C 193.865 210.273,193.600 210.611,193.600 210.899 C 193.600 211.568,192.493 212.515,190.872 213.232 C 190.172 213.542,189.600 213.920,189.600 214.073 C 189.600 214.226,188.788 214.473,187.795 214.622 C 186.802 214.771,185.892 215.052,185.771 215.246 C 185.651 215.441,181.423 215.600,176.376 215.600 L 167.200 215.600 167.200 188.200 L 167.200 160.800 174.000 160.800 C 177.740 160.800,180.800 160.955,180.800 161.144 M288.705 161.180 C 289.087 161.390,290.435 161.673,291.700 161.809 C 292.965 161.946,294.000 162.196,294.000 162.365 C 294.000 162.535,294.741 162.895,295.647 163.167 C 297.340 163.674,298.991 165.110,299.414 166.445 C 299.546 166.860,299.816 167.200,300.013 167.200 C 300.211 167.200,300.492 168.100,300.638 169.200 C 300.784 170.300,301.060 171.200,301.252 171.200 C 301.443 171.200,301.600 171.650,301.600 172.200 C 301.600 172.750,301.443 173.200,301.252 173.200 C 301.060 173.200,300.784 174.100,300.638 175.200 C 300.492 176.300,300.211 177.200,300.013 177.200 C 299.816 177.200,299.538 177.565,299.397 178.010 C 298.806 179.871,294.797 182.800,292.840 182.800 C 292.378 182.800,292.000 182.980,292.000 183.200 C 292.000 183.449,289.766 183.600,286.097 183.600 C 277.761 183.600,276.818 183.952,276.806 187.067 C 276.799 189.114,277.112 190.000,277.843 190.000 C 278.149 190.000,278.400 190.160,278.400 190.356 C 278.400 190.552,281.703 190.778,285.740 190.858 C 290.469 190.951,293.280 191.166,293.640 191.462 C 293.948 191.715,294.965 192.126,295.900 192.376 C 296.835 192.626,297.600 193.004,297.600 193.215 C 297.600 193.427,297.804 193.600,298.053 193.600 C 298.631 193.600,301.780 196.776,302.119 197.700 C 302.260 198.085,302.544 198.400,302.750 198.400 C 302.956 198.400,303.249 199.300,303.400 200.400 C 303.551 201.500,303.838 202.400,304.038 202.400 C 304.237 202.400,304.400 202.850,304.400 203.400 C 304.400 203.950,304.243 204.400,304.051 204.400 C 303.859 204.400,303.613 205.319,303.506 206.443 C 303.398 207.566,303.129 208.601,302.909 208.743 C 302.688 208.884,302.382 209.402,302.229 209.894 C 301.848 211.114,299.753 213.146,298.569 213.443 C 298.036 213.577,297.600 213.836,297.600 214.019 C 297.600 214.202,296.790 214.472,295.800 214.621 C 294.810 214.769,294.000 215.050,294.000 215.245 C 294.000 215.442,289.714 215.600,284.400 215.600 L 274.800 215.600 274.800 188.200 L 274.800 160.800 281.405 160.800 C 285.038 160.800,288.323 160.971,288.705 161.180 M326.223 184.489 C 325.206 185.940,325.519 190.000,326.647 190.000 C 326.951 190.000,327.200 190.180,327.200 190.400 C 327.200 191.233,350.975 190.912,351.738 190.069 C 352.533 189.191,352.665 184.825,351.920 184.080 C 350.893 183.053,326.962 183.434,326.223 184.489 M129.428 190.300 L 131.112 192.000 136.566 192.000 L 142.021 192.000 130.610 203.449 C 120.434 213.660,119.128 214.838,118.535 214.349 C 118.169 214.047,113.022 208.940,107.098 203.000 L 96.326 192.200 101.248 192.087 C 104.543 192.011,106.283 191.813,106.515 191.487 C 106.785 191.106,106.905 191.109,107.064 191.500 C 107.176 191.778,107.948 192.000,108.798 192.000 C 110.293 192.000,110.336 192.041,110.588 193.700 C 110.729 194.635,110.999 195.760,111.186 196.200 C 111.374 196.640,111.633 197.326,111.761 197.726 C 112.368 199.612,114.589 198.393,114.721 196.100 C 114.787 194.945,115.012 194.000,115.221 194.000 C 115.429 194.000,115.600 193.550,115.600 193.000 C 115.600 192.012,115.639 192.000,119.011 192.000 L 122.423 192.000 124.470 189.800 C 126.759 187.341,126.467 187.311,129.428 190.300 M289.100 255.757 C 288.715 256.049,288.400 256.499,288.400 256.757 C 288.400 257.014,288.146 257.322,287.837 257.441 C 287.527 257.560,287.055 258.185,286.788 258.829 C 286.521 259.473,286.145 260.000,285.951 260.000 C 285.758 260.000,285.600 260.439,285.600 260.975 C 285.600 261.782,285.377 261.971,284.300 262.075 L 283.000 262.200 283.000 272.800 L 283.000 283.400 289.600 283.400 L 296.200 283.400 296.327 282.298 C 296.552 280.341,295.736 280.000,290.829 280.000 L 286.400 280.000 286.400 277.000 L 286.400 274.000 290.029 274.000 C 292.640 274.000,293.817 273.840,294.229 273.429 C 294.884 272.773,294.994 271.600,294.400 271.600 C 294.180 271.600,294.000 271.330,294.000 271.000 C 294.000 270.509,293.311 270.400,290.200 270.400 L 286.400 270.400 286.400 268.000 L 286.400 265.600 290.829 265.600 C 295.736 265.600,296.552 265.259,296.327 263.302 C 296.201 262.210,296.171 262.199,292.900 262.084 C 289.215 261.954,288.860 261.602,290.800 260.000 C 293.629 257.663,291.988 253.565,289.100 255.757 M329.100 261.863 C 328.495 261.967,328.000 262.202,328.000 262.383 C 328.000 262.565,327.544 262.828,326.986 262.968 C 326.415 263.111,325.764 263.697,325.495 264.311 C 325.231 264.910,324.833 265.529,324.608 265.686 C 324.064 266.067,324.057 279.527,324.600 279.915 C 324.820 280.072,325.196 280.560,325.435 281.000 C 326.512 282.980,335.600 284.947,335.600 283.200 C 335.600 282.980,335.807 282.800,336.060 282.800 C 337.554 282.800,339.312 279.928,339.510 277.162 L 339.707 274.400 338.054 274.400 C 336.479 274.400,336.400 274.458,336.400 275.614 C 336.400 280.014,329.198 281.919,328.162 277.793 C 328.025 277.247,327.753 276.800,327.557 276.800 C 325.770 276.800,327.800 266.361,329.685 265.856 C 332.477 265.108,335.128 265.941,335.475 267.676 C 335.599 268.294,335.858 268.800,336.050 268.800 C 336.243 268.800,336.400 269.171,336.400 269.624 C 336.400 270.332,336.612 270.431,337.900 270.324 L 339.400 270.200 339.382 268.074 C 339.371 266.905,339.171 265.825,338.935 265.674 C 338.700 265.523,338.391 265.024,338.247 264.564 C 338.104 264.104,337.495 263.475,336.893 263.165 C 336.292 262.855,335.697 262.462,335.571 262.292 C 335.290 261.912,330.608 261.601,329.100 261.863 M44.800 262.373 C 44.800 262.578,44.440 262.860,44.000 263.000 C 43.560 263.140,43.200 263.493,43.200 263.784 C 43.200 264.076,42.910 264.426,42.556 264.561 C 40.346 265.410,42.687 272.355,45.414 273.039 C 45.956 273.175,46.400 273.426,46.400 273.596 C 46.400 273.766,47.213 274.110,48.208 274.360 C 52.243 275.376,53.573 279.194,50.116 279.842 C 47.215 280.386,44.846 279.340,44.813 277.500 C 44.806 277.115,44.620 276.800,44.400 276.800 C 44.180 276.800,44.000 276.530,44.000 276.200 C 44.000 275.764,43.550 275.600,42.349 275.600 L 40.698 275.600 40.898 277.683 C 41.008 278.829,41.301 279.834,41.549 279.916 C 41.797 279.999,42.003 280.277,42.007 280.533 C 42.017 281.212,43.803 282.800,44.556 282.800 C 44.910 282.800,45.200 282.980,45.200 283.200 C 45.200 285.077,53.706 283.100,54.800 280.969 C 55.130 280.326,55.535 279.740,55.700 279.667 C 56.100 279.489,56.088 275.600,55.688 275.600 C 55.516 275.600,55.182 275.086,54.945 274.459 C 54.696 273.799,53.983 273.083,53.257 272.761 C 52.566 272.455,52.000 272.083,52.000 271.934 C 52.000 271.785,51.460 271.545,50.800 271.400 C 50.140 271.255,49.600 270.993,49.600 270.818 C 49.600 270.643,49.041 270.388,48.358 270.252 C 45.758 269.732,44.602 267.788,46.075 266.416 C 47.884 264.730,52.000 265.819,52.000 267.983 C 52.000 269.497,52.460 270.000,53.843 270.000 C 54.747 270.000,55.200 269.811,55.200 269.433 C 55.200 269.122,55.425 268.791,55.700 268.698 C 56.072 268.573,56.086 268.385,55.756 267.965 C 55.512 267.654,55.194 266.779,55.050 266.019 C 54.770 264.545,53.404 262.800,52.530 262.800 C 52.239 262.800,52.000 262.620,52.000 262.400 C 52.000 262.163,50.533 262.000,48.400 262.000 C 46.420 262.000,44.800 262.168,44.800 262.373 M59.043 262.633 C 58.726 263.458,58.726 282.142,59.043 282.967 C 59.250 283.508,60.215 283.600,65.643 283.600 L 72.000 283.600 72.000 282.433 C 72.000 280.027,71.941 280.000,66.757 280.000 L 62.000 280.000 62.000 277.000 L 62.000 274.000 66.200 274.000 L 70.400 274.000 70.400 272.833 C 70.400 270.475,70.263 270.400,65.957 270.400 L 62.000 270.400 62.000 268.000 L 62.000 265.600 67.000 265.600 L 72.000 265.600 72.000 263.800 L 72.000 262.000 65.643 262.000 C 60.215 262.000,59.250 262.092,59.043 262.633 M74.667 262.267 C 74.520 262.413,74.400 267.284,74.400 273.090 L 74.400 283.646 76.100 283.523 L 77.800 283.400 78.016 277.400 C 78.135 274.100,78.276 271.670,78.330 272.000 C 78.383 272.330,78.775 273.320,79.200 274.200 C 79.625 275.080,79.979 276.025,79.986 276.300 C 79.994 276.575,80.180 276.800,80.400 276.800 C 80.620 276.800,80.800 277.120,80.800 277.511 C 80.800 280.324,84.708 279.901,85.433 277.010 C 85.573 276.455,85.818 276.000,85.979 276.000 C 86.140 276.000,86.510 275.010,86.800 273.800 C 87.665 270.193,88.000 271.253,88.000 277.600 L 88.000 283.600 89.600 283.600 L 91.200 283.600 91.200 272.778 L 91.200 261.956 89.315 262.078 C 87.519 262.194,87.401 262.276,86.832 263.800 C 86.503 264.680,86.092 265.460,85.917 265.533 C 85.743 265.607,85.600 265.932,85.600 266.255 C 85.600 266.579,85.235 267.644,84.790 268.622 C 84.344 269.600,83.872 270.940,83.740 271.600 C 83.466 272.972,82.825 273.181,82.516 272.000 C 82.401 271.560,82.166 271.200,81.993 271.200 C 81.821 271.200,81.464 270.300,81.200 269.200 C 80.936 268.100,80.566 267.200,80.378 267.200 C 80.190 267.200,79.918 266.570,79.774 265.800 C 79.629 265.030,79.365 264.400,79.187 264.400 C 79.009 264.400,78.745 263.860,78.600 263.200 C 78.341 262.022,75.569 261.365,74.667 262.267 M100.400 262.592 C 100.400 262.942,100.147 263.627,99.838 264.114 C 99.530 264.601,99.154 265.765,99.003 266.700 C 98.853 267.635,98.581 268.400,98.400 268.400 C 98.219 268.400,97.949 269.120,97.800 270.000 C 97.651 270.880,97.394 271.600,97.229 271.600 C 97.063 271.600,96.690 272.590,96.400 273.800 C 96.110 275.010,95.741 276.000,95.582 276.000 C 95.422 276.000,95.169 276.810,95.021 277.800 C 94.872 278.790,94.602 279.600,94.420 279.600 C 94.238 279.600,93.975 280.206,93.836 280.946 C 93.053 285.121,97.100 284.625,98.069 280.428 C 98.327 279.313,98.664 278.400,98.819 278.400 C 98.973 278.400,99.208 277.860,99.340 277.200 C 99.650 275.652,105.200 275.251,105.200 276.776 C 105.200 277.203,105.364 277.654,105.565 277.778 C 105.766 277.903,106.052 278.723,106.200 279.602 C 106.349 280.481,106.620 281.200,106.803 281.200 C 106.987 281.200,107.255 281.740,107.400 282.400 C 107.640 283.493,107.808 283.600,109.287 283.600 L 110.910 283.600 110.641 281.314 C 110.494 280.057,110.114 278.509,109.797 277.874 C 109.480 277.239,109.106 276.108,108.966 275.360 C 108.826 274.612,108.564 274.000,108.384 274.000 C 108.204 274.000,107.836 273.010,107.565 271.800 C 107.294 270.590,106.921 269.600,106.736 269.600 C 106.551 269.600,106.400 269.222,106.400 268.760 C 106.400 268.299,106.136 267.354,105.813 266.660 C 105.490 265.967,104.995 264.680,104.713 263.800 C 104.146 262.032,100.400 260.983,100.400 262.592 M113.395 262.900 C 113.274 263.395,113.225 268.210,113.287 273.600 L 113.400 283.400 114.900 283.524 L 116.400 283.648 116.416 275.924 L 116.433 268.200 117.394 270.000 C 117.923 270.990,118.476 272.115,118.624 272.500 C 118.772 272.885,119.019 273.200,119.172 273.200 C 119.325 273.200,119.698 273.830,120.000 274.600 C 120.302 275.370,120.681 276.000,120.843 276.000 C 121.004 276.000,121.255 276.540,121.400 277.200 C 121.545 277.860,121.827 278.400,122.026 278.400 C 122.226 278.400,122.658 278.985,122.987 279.700 C 124.437 282.857,125.760 284.147,127.182 283.790 C 128.760 283.394,128.787 283.201,128.794 272.300 L 128.800 262.000 127.200 262.000 L 125.600 262.000 125.600 269.000 C 125.600 275.976,125.306 277.346,124.400 274.600 C 124.146 273.830,123.775 273.200,123.577 273.200 C 123.378 273.200,123.102 272.750,122.964 272.200 C 122.826 271.650,122.586 271.200,122.431 271.200 C 122.276 271.200,121.902 270.570,121.600 269.800 C 121.298 269.030,120.904 268.400,120.725 268.400 C 120.546 268.400,120.400 268.124,120.400 267.787 C 120.400 267.451,120.146 267.078,119.836 266.959 C 119.526 266.839,119.165 266.317,119.035 265.797 C 118.194 262.445,114.030 260.306,113.395 262.900 M137.743 262.553 C 137.491 262.840,137.058 264.093,136.779 265.337 C 136.501 266.582,136.136 267.600,135.968 267.600 C 135.801 267.600,135.538 268.185,135.386 268.900 C 135.233 269.615,134.968 270.380,134.798 270.600 C 134.628 270.820,134.260 272.035,133.981 273.300 C 133.701 274.565,133.336 275.600,133.168 275.600 C 133.001 275.600,132.742 276.152,132.594 276.827 C 132.446 277.502,132.073 278.537,131.765 279.127 C 131.457 279.717,131.204 280.965,131.202 281.900 L 131.200 283.600 132.800 283.600 C 133.956 283.600,134.400 283.433,134.400 283.000 C 134.400 282.670,134.569 282.400,134.775 282.400 C 134.982 282.400,135.272 281.590,135.421 280.600 C 135.569 279.610,135.830 278.800,136.001 278.800 C 136.171 278.800,136.429 278.170,136.574 277.400 L 136.836 276.000 139.618 276.000 C 141.824 276.000,142.400 276.124,142.400 276.600 C 142.400 276.930,142.567 277.200,142.771 277.200 C 142.976 277.200,143.364 278.190,143.635 279.400 C 143.906 280.610,144.266 281.600,144.436 281.600 C 144.606 281.600,144.802 282.005,144.872 282.500 C 144.976 283.229,145.294 283.424,146.550 283.527 L 148.100 283.654 147.922 281.195 C 147.824 279.843,147.548 278.615,147.309 278.467 C 147.069 278.319,146.747 277.524,146.592 276.699 C 146.438 275.875,146.187 275.200,146.036 275.200 C 145.884 275.200,145.537 274.120,145.264 272.800 C 144.992 271.480,144.612 270.400,144.419 270.400 C 144.227 270.400,143.949 269.680,143.800 268.800 C 143.651 267.920,143.396 267.200,143.234 267.200 C 143.071 267.200,142.727 266.287,142.469 265.172 C 141.787 262.216,139.262 260.817,137.743 262.553 M166.800 272.800 L 166.800 283.600 172.000 283.600 C 175.200 283.600,177.200 283.446,177.200 283.200 C 177.200 282.980,177.400 282.800,177.644 282.800 C 178.344 282.800,179.985 281.070,179.993 280.324 C 179.997 279.952,180.180 279.536,180.400 279.400 C 180.640 279.251,180.800 276.529,180.800 272.576 C 180.800 268.459,180.650 266.000,180.400 266.000 C 180.180 266.000,180.000 265.671,180.000 265.270 C 180.000 264.469,178.429 262.800,177.674 262.800 C 177.413 262.800,177.200 262.620,177.200 262.400 C 177.200 262.154,175.200 262.000,172.000 262.000 L 166.800 262.000 166.800 272.800 M190.292 263.300 C 189.913 264.015,189.490 265.185,189.351 265.900 C 189.213 266.615,188.963 267.200,188.795 267.200 C 188.627 267.200,188.366 267.856,188.215 268.658 C 188.065 269.461,187.694 270.496,187.391 270.958 C 187.088 271.421,186.718 272.565,186.569 273.500 C 186.420 274.435,186.161 275.200,185.993 275.200 C 185.826 275.200,185.562 275.875,185.408 276.699 C 185.253 277.524,184.948 278.308,184.730 278.443 C 184.513 278.578,184.233 279.805,184.109 281.172 L 183.884 283.655 185.442 283.528 C 186.706 283.424,187.024 283.230,187.128 282.500 C 187.198 282.005,187.403 281.600,187.583 281.600 C 187.764 281.600,188.029 280.970,188.174 280.200 C 188.318 279.430,188.588 278.800,188.774 278.800 C 188.959 278.800,189.229 278.170,189.374 277.400 L 189.636 276.000 192.418 276.000 C 194.624 276.000,195.200 276.124,195.200 276.600 C 195.200 276.930,195.349 277.200,195.531 277.200 C 195.714 277.200,196.080 278.145,196.345 279.300 C 197.207 283.055,197.588 283.600,199.353 283.600 L 200.911 283.600 200.688 281.144 C 200.566 279.793,200.294 278.578,200.083 278.444 C 199.873 278.310,199.574 277.615,199.418 276.900 C 199.263 276.185,198.999 275.600,198.832 275.600 C 198.664 275.600,198.299 274.565,198.019 273.300 C 197.740 272.035,197.372 270.820,197.202 270.600 C 197.032 270.380,196.767 269.615,196.614 268.900 C 196.462 268.185,196.199 267.600,196.032 267.600 C 195.864 267.600,195.498 266.577,195.218 265.326 C 194.394 261.643,191.748 260.555,190.292 263.300 M219.693 272.700 L 219.800 283.400 224.900 283.512 C 228.204 283.584,230.000 283.479,230.000 283.212 C 230.000 282.985,230.230 282.800,230.511 282.800 C 231.090 282.800,232.349 281.464,233.098 280.054 C 234.210 277.960,233.497 273.891,231.802 272.651 C 231.150 272.174,231.152 272.105,231.838 271.419 C 232.657 270.600,232.908 265.378,232.153 264.875 C 231.927 264.724,231.632 264.302,231.498 263.938 C 231.364 263.573,230.702 263.154,230.027 263.006 C 229.352 262.858,228.800 262.571,228.800 262.368 C 228.800 262.165,226.733 262.000,224.193 262.000 L 219.587 262.000 219.693 272.700 M236.400 272.800 L 236.400 283.600 238.000 283.600 L 239.600 283.600 239.600 272.800 L 239.600 262.000 238.000 262.000 L 236.400 262.000 236.400 272.800 M247.600 262.368 C 247.600 262.571,247.067 262.854,246.415 262.997 C 243.944 263.539,243.400 265.308,243.400 272.800 L 243.400 279.400 244.552 280.905 C 245.185 281.733,246.130 282.518,246.652 282.649 C 247.173 282.780,247.600 283.047,247.600 283.243 C 247.600 283.821,253.786 283.664,254.956 283.057 C 256.433 282.290,258.000 280.501,258.000 279.579 C 258.000 279.151,258.180 278.800,258.400 278.800 C 258.649 278.800,258.800 276.533,258.800 272.800 C 258.800 269.067,258.649 266.800,258.400 266.800 C 258.180 266.800,258.000 266.405,258.000 265.922 C 258.000 264.857,256.121 262.800,255.149 262.800 C 254.763 262.800,254.336 262.620,254.200 262.400 C 253.890 261.898,247.600 261.867,247.600 262.368 M262.180 262.507 C 262.073 262.786,262.034 267.601,262.093 273.207 L 262.200 283.400 263.800 283.400 L 265.400 283.400 265.616 277.400 C 265.735 274.100,265.870 271.715,265.916 272.100 C 265.962 272.485,266.146 272.800,266.324 272.800 C 266.503 272.800,266.879 273.700,267.161 274.800 C 267.443 275.900,267.837 276.800,268.037 276.800 C 268.237 276.800,268.400 277.120,268.400 277.511 C 268.400 280.324,272.308 279.901,273.033 277.010 C 273.173 276.455,273.418 276.000,273.579 276.000 C 273.740 276.000,274.110 275.010,274.400 273.800 C 275.265 270.193,275.600 271.253,275.600 277.600 L 275.600 283.600 277.200 283.600 L 278.800 283.600 278.800 272.800 L 278.800 262.000 277.000 262.000 C 275.667 262.000,275.200 262.156,275.200 262.600 C 275.200 262.930,275.028 263.200,274.818 263.200 C 274.608 263.200,274.318 263.830,274.174 264.600 C 274.029 265.370,273.768 266.000,273.592 266.000 C 273.417 266.000,273.043 266.900,272.761 268.000 C 272.479 269.100,272.111 270.000,271.943 270.000 C 271.774 270.000,271.518 270.630,271.374 271.400 C 271.084 272.942,270.442 273.248,270.116 272.000 C 270.001 271.560,269.766 271.200,269.593 271.200 C 269.421 271.200,269.064 270.300,268.800 269.200 C 268.536 268.100,268.178 267.200,268.005 267.200 C 267.831 267.200,267.571 266.570,267.426 265.800 C 267.282 265.030,267.006 264.400,266.814 264.400 C 266.621 264.400,266.345 263.860,266.200 263.200 C 265.913 261.893,262.633 261.327,262.180 262.507 M298.500 262.598 C 297.724 263.480,297.789 282.247,298.571 283.029 C 299.258 283.715,308.800 283.875,308.800 283.200 C 308.800 282.980,309.062 282.800,309.382 282.800 C 310.312 282.800,312.000 280.854,312.000 279.782 C 312.000 279.242,312.180 278.800,312.400 278.800 C 312.649 278.800,312.800 276.533,312.800 272.800 C 312.800 269.067,312.649 266.800,312.400 266.800 C 312.180 266.800,312.000 266.358,312.000 265.818 C 312.000 264.746,310.312 262.800,309.382 262.800 C 309.062 262.800,308.800 262.620,308.800 262.400 C 308.800 261.726,299.103 261.913,298.500 262.598 M317.293 272.700 L 317.400 283.400 318.900 283.524 L 320.400 283.648 320.400 272.824 L 320.400 262.000 318.793 262.000 L 317.187 262.000 317.293 272.700 M347.535 263.174 C 347.169 263.817,346.646 265.345,346.371 266.571 C 346.097 267.797,345.729 268.800,345.554 268.800 C 345.379 268.800,345.118 269.430,344.974 270.200 C 344.829 270.970,344.571 271.600,344.401 271.600 C 344.230 271.600,343.870 272.770,343.600 274.200 C 343.330 275.630,342.970 276.800,342.799 276.800 C 342.629 276.800,342.371 277.430,342.226 278.200 C 342.082 278.970,341.812 279.600,341.626 279.600 C 341.170 279.600,340.722 282.132,341.035 282.946 C 341.296 283.626,343.393 283.852,344.252 283.294 C 344.500 283.132,344.934 281.965,345.215 280.700 C 345.497 279.435,345.864 278.400,346.032 278.400 C 346.199 278.400,346.455 277.860,346.600 277.200 C 346.907 275.802,352.400 275.234,352.400 276.600 C 352.400 276.930,352.564 277.200,352.765 277.200 C 352.966 277.200,353.251 277.919,353.400 278.798 C 353.548 279.677,353.814 280.485,353.989 280.593 C 354.165 280.702,354.428 281.423,354.573 282.196 C 354.985 284.390,358.000 284.374,358.000 282.177 C 358.000 280.416,357.217 277.200,356.788 277.200 C 356.613 277.200,356.349 276.480,356.200 275.600 C 356.051 274.720,355.794 274.000,355.628 274.000 C 355.463 274.000,355.106 273.010,354.835 271.800 C 354.564 270.590,354.196 269.600,354.017 269.600 C 353.837 269.600,353.569 268.790,353.421 267.800 C 353.272 266.810,353.002 266.000,352.820 266.000 C 352.638 266.000,352.363 265.325,352.209 264.500 C 351.675 261.642,348.861 260.843,347.535 263.174 M175.747 266.049 C 177.049 266.642,177.188 267.319,177.195 273.118 C 177.201 279.368,176.781 280.000,172.618 280.000 L 170.000 280.000 170.000 272.800 L 170.000 265.600 172.381 265.600 C 173.691 265.600,175.206 265.802,175.747 266.049 M227.141 265.848 C 228.175 266.055,228.426 266.332,228.648 267.513 C 229.054 269.677,228.508 270.171,225.459 270.400 L 222.799 270.600 222.800 268.100 L 222.800 265.600 224.350 265.600 C 225.203 265.600,226.458 265.712,227.141 265.848 M253.135 266.037 C 255.509 266.865,256.219 276.822,254.048 278.842 C 252.387 280.388,249.582 280.372,247.945 278.808 L 246.600 277.523 246.600 272.695 C 246.600 269.189,246.737 267.822,247.100 267.700 C 247.375 267.608,247.600 267.293,247.600 267.000 C 247.600 265.862,250.958 265.278,253.135 266.037 M308.030 266.632 C 308.953 267.613,309.000 267.914,309.000 272.799 C 309.000 279.391,308.605 280.000,304.330 280.000 L 301.600 280.000 301.600 272.800 L 301.600 265.600 304.330 265.600 C 306.748 265.600,307.172 265.718,308.030 266.632 M103.455 271.575 C 103.692 272.762,103.654 272.800,102.250 272.800 C 100.582 272.800,100.612 272.851,101.398 271.346 C 101.726 270.716,101.996 269.845,101.998 269.411 C 102.001 268.249,103.123 269.914,103.455 271.575 M140.579 270.228 C 140.726 271.014,140.946 271.914,141.066 272.228 C 141.231 272.659,140.929 272.800,139.843 272.800 C 138.326 272.800,138.032 272.278,138.771 270.895 C 138.975 270.513,139.239 269.885,139.358 269.500 C 139.713 268.355,140.292 268.701,140.579 270.228 M350.400 269.793 C 350.400 270.072,350.513 270.863,350.650 271.550 C 350.893 272.767,350.862 272.800,349.442 272.800 C 348.037 272.800,347.582 270.971,348.862 270.467 C 349.048 270.393,349.200 269.994,349.200 269.579 C 349.200 269.073,349.397 268.901,349.800 269.055 C 350.130 269.182,350.400 269.514,350.400 269.793 M193.200 269.750 C 193.200 270.053,193.313 270.863,193.450 271.550 C 193.693 272.767,193.662 272.800,192.242 272.800 C 190.837 272.800,190.382 270.971,191.662 270.467 C 191.848 270.393,192.000 270.078,192.000 269.767 C 192.000 269.455,192.270 269.200,192.600 269.200 C 192.930 269.200,193.200 269.447,193.200 269.750 M228.712 275.124 C 231.347 277.409,229.597 280.000,225.418 280.000 L 222.800 280.000 222.800 277.200 L 222.800 274.400 225.339 274.400 C 227.214 274.400,228.096 274.589,228.712 275.124 " stroke="none" fill="#fcfcfc" fill-rule="evenodd"></path><path id="path1" d="M229.000 116.400 C 228.864 116.620,227.998 116.801,227.076 116.803 C 224.842 116.807,220.271 117.564,220.009 117.973 C 219.894 118.153,219.215 118.426,218.500 118.582 C 217.785 118.737,217.200 119.007,217.200 119.182 C 217.200 119.357,216.645 119.611,215.968 119.746 C 215.290 119.882,214.275 120.355,213.714 120.796 C 213.152 121.238,212.524 121.600,212.317 121.600 C 212.111 121.600,211.695 121.825,211.393 122.100 C 211.091 122.375,209.873 123.410,208.687 124.400 C 207.501 125.390,206.096 126.802,205.565 127.539 C 205.034 128.275,204.285 129.170,203.900 129.528 C 203.515 129.885,203.200 130.408,203.200 130.689 C 203.200 130.970,203.046 131.200,202.858 131.200 C 202.670 131.200,202.348 131.785,202.143 132.500 L 201.770 133.800 114.418 134.000 C 45.035 134.159,27.032 134.303,26.900 134.700 C 26.808 134.975,26.486 135.200,26.185 135.200 C 25.875 135.200,25.522 135.808,25.374 136.600 C 25.229 137.370,24.951 138.000,24.755 138.000 C 24.560 138.000,24.400 138.450,24.400 139.000 C 24.400 139.550,24.580 140.000,24.800 140.000 C 25.020 140.000,25.200 140.418,25.200 140.928 C 25.200 141.438,25.651 142.248,26.203 142.728 L 27.206 143.600 117.203 143.600 C 172.599 143.600,207.200 143.457,207.200 143.227 C 207.200 143.022,207.554 142.742,207.986 142.604 C 208.484 142.446,208.867 141.850,209.031 140.977 C 209.173 140.220,209.415 139.600,209.570 139.600 C 209.724 139.600,210.098 138.970,210.400 138.200 C 210.702 137.430,211.096 136.800,211.275 136.800 C 211.454 136.800,211.600 136.524,211.600 136.187 C 211.600 135.851,211.863 135.474,212.185 135.350 C 212.506 135.227,212.872 134.803,212.998 134.408 C 213.398 133.147,217.332 129.600,218.331 129.600 C 218.542 129.600,218.814 129.340,218.936 129.022 C 219.058 128.704,219.797 128.324,220.579 128.178 C 221.361 128.031,222.000 127.771,222.000 127.601 C 222.000 127.430,222.855 127.163,223.900 127.006 C 224.945 126.850,225.918 126.532,226.061 126.300 C 226.427 125.710,236.717 125.757,237.311 126.351 C 237.558 126.598,238.094 126.800,238.502 126.800 C 238.910 126.800,240.005 127.147,240.936 127.571 C 241.866 127.995,243.103 128.461,243.685 128.607 C 244.266 128.753,244.839 129.126,244.959 129.436 C 245.078 129.746,245.451 130.000,245.787 130.000 C 246.124 130.000,246.400 130.158,246.400 130.351 C 246.400 130.545,246.940 130.927,247.600 131.200 C 248.260 131.473,248.800 131.810,248.800 131.949 C 248.801 132.165,249.257 132.765,251.140 135.027 C 251.336 135.262,251.737 136.162,252.031 137.027 C 252.326 137.892,252.716 138.806,252.897 139.058 C 253.079 139.309,253.337 140.434,253.470 141.558 C 253.603 142.681,253.866 143.600,254.056 143.600 C 254.245 143.600,254.400 144.860,254.400 146.400 C 254.400 147.940,254.241 149.200,254.047 149.200 C 253.852 149.200,253.568 150.370,253.415 151.800 C 253.262 153.230,252.999 154.400,252.832 154.400 C 252.665 154.400,252.290 155.390,252.000 156.600 C 251.710 157.810,251.340 158.800,251.179 158.800 C 251.018 158.800,250.774 159.250,250.636 159.800 C 250.498 160.350,250.222 160.800,250.023 160.800 C 249.825 160.800,249.454 161.430,249.200 162.200 C 248.946 162.970,248.572 163.600,248.369 163.600 C 248.166 163.600,248.000 163.857,248.000 164.171 C 248.000 164.486,247.767 164.981,247.483 165.271 C 247.199 165.562,246.710 166.430,246.398 167.200 C 246.085 167.970,245.684 168.780,245.507 169.000 C 245.329 169.220,244.738 169.940,244.193 170.600 C 243.647 171.260,243.201 171.944,243.200 172.119 C 243.200 172.295,242.750 172.855,242.200 173.365 C 241.650 173.875,241.200 174.425,241.200 174.588 C 241.200 174.885,239.721 176.844,238.598 178.034 C 238.269 178.382,238.000 178.793,238.000 178.947 C 238.000 179.101,237.460 179.755,236.800 180.400 C 236.140 181.045,235.600 181.688,235.600 181.829 C 235.600 181.969,235.195 182.585,234.700 183.197 C 234.205 183.808,233.260 184.991,232.600 185.826 C 231.940 186.660,231.085 187.671,230.700 188.071 C 230.315 188.472,230.000 188.966,230.000 189.169 C 230.000 189.372,229.280 190.244,228.400 191.107 C 227.520 191.969,226.800 192.799,226.800 192.951 C 226.800 193.103,226.260 193.755,225.600 194.400 C 224.940 195.045,224.397 195.714,224.393 195.887 C 224.389 196.059,223.939 196.624,223.393 197.142 C 222.847 197.660,222.400 198.239,222.400 198.429 C 222.400 198.618,221.815 199.395,221.100 200.154 C 218.904 202.487,216.219 205.627,215.835 206.311 C 215.634 206.668,214.959 207.391,214.335 207.916 C 213.711 208.441,213.200 209.049,213.200 209.267 C 213.200 209.485,212.525 210.330,211.700 211.145 C 210.875 211.960,209.570 213.404,208.800 214.354 C 208.030 215.304,206.950 216.582,206.400 217.195 C 204.468 219.349,203.600 220.471,203.600 220.814 C 203.600 221.004,203.375 221.304,203.099 221.480 C 202.824 221.656,202.329 222.340,201.999 223.000 C 201.670 223.660,201.220 224.419,201.000 224.686 C 200.780 224.953,200.389 225.426,200.131 225.736 C 199.189 226.869,198.715 229.525,198.856 232.882 L 199.000 236.295 200.753 238.047 L 202.506 239.800 287.953 239.905 C 349.167 239.981,373.701 239.886,374.462 239.572 C 376.359 238.790,376.737 233.500,375.018 231.782 L 374.036 230.800 291.618 230.800 C 236.939 230.800,209.200 230.665,209.200 230.400 C 209.200 230.180,209.384 230.000,209.610 230.000 C 209.835 230.000,210.191 229.550,210.400 229.000 C 210.609 228.450,210.929 228.000,211.110 228.000 C 211.292 228.000,211.952 227.190,212.578 226.200 C 213.204 225.210,213.870 224.400,214.058 224.400 C 214.246 224.400,214.406 224.175,214.413 223.900 C 214.420 223.625,215.050 222.779,215.813 222.019 C 216.576 221.260,217.200 220.513,217.200 220.359 C 217.200 220.206,217.830 219.450,218.600 218.680 C 219.370 217.910,220.000 217.148,220.000 216.987 C 220.000 216.826,220.630 216.100,221.400 215.374 C 222.170 214.648,222.800 213.902,222.800 213.716 C 222.800 213.530,223.115 213.085,223.500 212.728 C 224.635 211.674,226.000 210.105,226.000 209.854 C 226.000 209.726,226.810 208.811,227.800 207.821 C 228.790 206.831,229.600 205.845,229.600 205.630 C 229.600 205.416,229.844 205.096,230.143 204.920 C 230.748 204.563,234.400 200.147,234.400 199.772 C 234.400 199.641,235.030 198.921,235.800 198.174 C 236.570 197.426,237.200 196.619,237.200 196.381 C 237.200 196.143,237.740 195.494,238.400 194.939 C 239.060 194.383,239.600 193.681,239.600 193.379 C 239.600 193.076,239.960 192.635,240.400 192.400 C 240.840 192.165,241.200 191.791,241.200 191.569 C 241.200 191.348,241.579 190.769,242.042 190.283 C 242.505 189.797,243.176 188.950,243.532 188.400 C 243.889 187.850,244.410 187.256,244.690 187.080 C 244.971 186.904,245.200 186.508,245.200 186.200 C 245.200 185.892,245.425 185.496,245.700 185.320 C 246.304 184.933,248.000 182.563,248.000 182.105 C 248.000 181.925,248.315 181.480,248.700 181.117 C 249.932 179.954,251.991 176.931,253.276 174.400 C 253.555 173.850,253.992 173.267,254.247 173.105 C 254.502 172.943,254.835 172.315,254.987 171.709 C 255.139 171.104,255.384 170.516,255.532 170.404 C 255.679 170.292,256.100 169.660,256.466 169.000 C 257.095 167.866,257.517 167.013,259.835 162.194 C 260.366 161.091,260.800 159.891,260.800 159.528 C 260.800 159.164,260.984 158.805,261.209 158.730 C 261.435 158.655,261.732 157.875,261.871 156.997 C 262.010 156.119,262.265 155.306,262.438 155.191 C 263.887 154.228,263.866 136.133,262.415 135.202 C 262.242 135.091,261.974 134.415,261.818 133.700 C 261.663 132.985,261.399 132.400,261.232 132.400 C 261.064 132.400,260.717 131.701,260.461 130.847 C 260.206 129.994,259.727 129.072,259.398 128.798 C 259.069 128.525,258.800 128.138,258.800 127.936 C 258.800 127.381,252.829 121.663,251.961 121.388 C 251.542 121.255,251.200 120.985,251.200 120.789 C 251.200 120.593,250.480 120.216,249.600 119.953 C 248.720 119.689,248.000 119.342,248.000 119.181 C 248.000 119.021,247.325 118.763,246.500 118.609 C 245.675 118.455,244.814 118.175,244.586 117.987 C 243.992 117.497,239.396 116.807,236.700 116.803 C 235.435 116.801,234.400 116.620,234.400 116.400 C 234.400 116.175,233.275 116.000,231.824 116.000 C 230.407 116.000,229.136 116.180,229.000 116.400 " stroke="none" fill="#fcbc34" fill-rule="evenodd"></path><path id="path2" d="" stroke="none" fill="#fcdc100" fill-rule="evenodd"></path><path id="path3" d="" stroke="none" fill="#fcdc100" fill-rule="evenodd"></path><path id="path4" d="" stroke="none" fill="#fcdc100" fill-rule="evenodd"></path></g></svg>