<svg width="40" height="40" viewBox="0 0 40 40" fill="none" xmlns="http://www.w3.org/2000/svg">
<path fill-rule="evenodd" clip-rule="evenodd" d="M29.1673 33.3333C30.2724 33.3333 31.3322 32.8944 32.1136 32.113C32.895 31.3316 33.334 30.2717 33.334 29.1667C33.334 28.0616 32.895 27.0018 32.1136 26.2204C31.3322 25.439 30.2724 25 29.1673 25C28.0622 25 27.0024 25.439 26.221 26.2204C25.4396 27.0018 25.0007 28.0616 25.0007 29.1667C25.0007 30.2717 25.4396 31.3316 26.221 32.113C27.0024 32.8944 28.0622 33.3333 29.1673 33.3333ZM29.1673 35C30.7144 35 32.1981 34.3854 33.2921 33.2915C34.3861 32.1975 35.0007 30.7138 35.0007 29.1667C35.0007 27.6196 34.3861 26.1358 33.2921 25.0419C32.1981 23.9479 30.7144 23.3333 29.1673 23.3333C27.6202 23.3333 26.1365 23.9479 25.0425 25.0419C23.9486 26.1358 23.334 27.6196 23.334 29.1667C23.334 30.7138 23.9486 32.1975 25.0425 33.2915C26.1365 34.3854 27.6202 35 29.1673 35V35Z" fill="black"/>
<path fill-rule="evenodd" clip-rule="evenodd" d="M29.1673 26.25C29.3883 26.25 29.6003 26.3378 29.7566 26.4941C29.9129 26.6504 30.0007 26.8623 30.0007 27.0833V28.8217L30.5898 29.4108C30.7416 29.568 30.8256 29.7785 30.8237 29.997C30.8218 30.2155 30.7342 30.4245 30.5797 30.579C30.4252 30.7335 30.2162 30.8212 29.9977 30.8231C29.7792 30.825 29.5687 30.741 29.4115 30.5892L28.334 29.5117V27.0833C28.334 26.8623 28.4218 26.6504 28.5781 26.4941C28.7343 26.3378 28.9463 26.25 29.1673 26.25ZM11.6673 19.1667H10.0007V20.8333H11.6673V19.1667ZM10.0007 17.5C9.55862 17.5 9.1347 17.6756 8.82214 17.9882C8.50958 18.3007 8.33398 18.7246 8.33398 19.1667V20.8333C8.33398 21.2754 8.50958 21.6993 8.82214 22.0118C9.1347 22.3244 9.55862 22.5 10.0007 22.5H11.6673C12.1093 22.5 12.5333 22.3244 12.8458 22.0118C13.1584 21.6993 13.334 21.2754 13.334 20.8333V19.1667C13.334 18.7246 13.1584 18.3007 12.8458 17.9882C12.5333 17.6756 12.1093 17.5 11.6673 17.5H10.0007ZM18.334 19.1667H16.6673V20.8333H18.334V19.1667ZM16.6673 17.5C16.2253 17.5 15.8014 17.6756 15.4888 17.9882C15.1762 18.3007 15.0007 18.7246 15.0007 19.1667V20.8333C15.0007 21.2754 15.1762 21.6993 15.4888 22.0118C15.8014 22.3244 16.2253 22.5 16.6673 22.5H18.334C18.776 22.5 19.1999 22.3244 19.5125 22.0118C19.8251 21.6993 20.0007 21.2754 20.0007 20.8333V19.1667C20.0007 18.7246 19.8251 18.3007 19.5125 17.9882C19.1999 17.6756 18.776 17.5 18.334 17.5H16.6673ZM25.0007 19.1667H23.334V20.8333H25.0007V19.1667ZM23.334 17.5C22.892 17.5 22.468 17.6756 22.1555 17.9882C21.8429 18.3007 21.6673 18.7246 21.6673 19.1667V20.8333C21.6673 21.2754 21.8429 21.6993 22.1555 22.0118C22.468 22.3244 22.892 22.5 23.334 22.5H25.0007C25.4427 22.5 25.8666 22.3244 26.1792 22.0118C26.4917 21.6993 26.6673 21.2754 26.6673 20.8333V19.1667C26.6673 18.7246 26.4917 18.3007 26.1792 17.9882C25.8666 17.6756 25.4427 17.5 25.0007 17.5H23.334ZM11.6673 25.8333H10.0007V27.5H11.6673V25.8333ZM10.0007 24.1667C9.55862 24.1667 9.1347 24.3423 8.82214 24.6548C8.50958 24.9674 8.33398 25.3913 8.33398 25.8333V27.5C8.33398 27.942 8.50958 28.366 8.82214 28.6785C9.1347 28.9911 9.55862 29.1667 10.0007 29.1667H11.6673C12.1093 29.1667 12.5333 28.9911 12.8458 28.6785C13.1584 28.366 13.334 27.942 13.334 27.5V25.8333C13.334 25.3913 13.1584 24.9674 12.8458 24.6548C12.5333 24.3423 12.1093 24.1667 11.6673 24.1667H10.0007ZM18.334 25.8333H16.6673V27.5H18.334V25.8333ZM16.6673 24.1667C16.2253 24.1667 15.8014 24.3423 15.4888 24.6548C15.1762 24.9674 15.0007 25.3913 15.0007 25.8333V27.5C15.0007 27.942 15.1762 28.366 15.4888 28.6785C15.8014 28.9911 16.2253 29.1667 16.6673 29.1667H18.334C18.776 29.1667 19.1999 28.9911 19.5125 28.6785C19.8251 28.366 20.0007 27.942 20.0007 27.5V25.8333C20.0007 25.3913 19.8251 24.9674 19.5125 24.6548C19.1999 24.3423 18.776 24.1667 18.334 24.1667H16.6673Z" fill="black"/>
<path fill-rule="evenodd" clip-rule="evenodd" d="M6.66667 10C6.66667 9.77899 6.75446 9.56702 6.91074 9.41074C7.06702 9.25446 7.27899 9.16667 7.5 9.16667H11.6667V7.5H7.5C6.83696 7.5 6.20107 7.76339 5.73223 8.23223C5.26339 8.70107 5 9.33696 5 10V30C5 30.663 5.26339 31.2989 5.73223 31.7678C6.20107 32.2366 6.83696 32.5 7.5 32.5H24.3792C24.0238 31.991 23.7523 31.4283 23.575 30.8333H7.5C7.27899 30.8333 7.06702 30.7455 6.91074 30.5893C6.75446 30.433 6.66667 30.221 6.66667 30V10ZM28.3333 23.3917C28.8861 23.3126 29.4473 23.3126 30 23.3917V10C30 9.33696 29.7366 8.70107 29.2678 8.23223C28.7989 7.76339 28.163 7.5 27.5 7.5H25V9.16667H27.5C27.721 9.16667 27.933 9.25446 28.0893 9.41074C28.2455 9.56702 28.3333 9.77899 28.3333 10V23.3917ZM13.3333 9.16667H22.1358V7.5H13.3333V9.16667Z" fill="black"/>
<path fill-rule="evenodd" clip-rule="evenodd" d="M23.334 7.5H13.334V10C13.334 10.221 13.2462 10.433 13.0899 10.5893C12.9336 10.7455 12.7217 10.8333 12.5007 10.8333C12.2796 10.8333 12.0677 10.7455 11.9114 10.5893C11.7551 10.433 11.6673 10.221 11.6673 10V7.5H7.50065C7.05862 7.5 6.6347 7.6756 6.32214 7.98816C6.00958 8.30072 5.83398 8.72464 5.83398 9.16667V13.3333C5.83398 13.7754 6.00958 14.1993 6.32214 14.5118C6.6347 14.8244 7.05862 15 7.50065 15H27.5007C27.9427 15 28.3666 14.8244 28.6792 14.5118C28.9917 14.1993 29.1673 13.7754 29.1673 13.3333V9.16667C29.1673 8.72464 28.9917 8.30072 28.6792 7.98816C28.3666 7.6756 27.9427 7.5 27.5007 7.5H25.0007V10C25.0007 10.221 24.9129 10.433 24.7566 10.5893C24.6003 10.7455 24.3883 10.8333 24.1673 10.8333C23.9463 10.8333 23.7343 10.7455 23.5781 10.5893C23.4218 10.433 23.334 10.221 23.334 10V7.5Z" fill="black"/>
<path fill-rule="evenodd" clip-rule="evenodd" d="M29.9993 15H6.66602V13.3333H29.9993V15Z" fill="black"/>
<path d="M10 5.83333C10 5.61232 10.0878 5.40036 10.2441 5.24408C10.4004 5.0878 10.6123 5 10.8333 5C11.0543 5 11.2663 5.0878 11.4226 5.24408C11.5789 5.40036 11.6667 5.61232 11.6667 5.83333V9.16667C11.6667 9.38768 11.5789 9.59964 11.4226 9.75592C11.2663 9.9122 11.0543 10 10.8333 10C10.6123 10 10.4004 9.9122 10.2441 9.75592C10.0878 9.59964 10 9.38768 10 9.16667V5.83333ZM21.6667 5.83333C21.6667 5.61232 21.7545 5.40036 21.9107 5.24408C22.067 5.0878 22.279 5 22.5 5C22.721 5 22.933 5.0878 23.0893 5.24408C23.2455 5.40036 23.3333 5.61232 23.3333 5.83333V9.16667C23.3333 9.38768 23.2455 9.59964 23.0893 9.75592C22.933 9.9122 22.721 10 22.5 10C22.279 10 22.067 9.9122 21.9107 9.75592C21.7545 9.59964 21.6667 9.38768 21.6667 9.16667V5.83333Z" fill="black"/>
</svg>
