<svg width="40" height="40" viewBox="0 0 40 40" fill="none" xmlns="http://www.w3.org/2000/svg">
<path fill-rule="evenodd" clip-rule="evenodd" d="M29.1663 33.3333C30.2714 33.3333 31.3312 32.8944 32.1126 32.113C32.894 31.3316 33.333 30.2717 33.333 29.1667C33.333 28.0616 32.894 27.0018 32.1126 26.2204C31.3312 25.439 30.2714 25 29.1663 25C28.0613 25 27.0015 25.439 26.2201 26.2204C25.4387 27.0018 24.9997 28.0616 24.9997 29.1667C24.9997 30.2717 25.4387 31.3316 26.2201 32.113C27.0015 32.8944 28.0613 33.3333 29.1663 33.3333ZM29.1663 35C30.7134 35 32.1972 34.3854 33.2911 33.2915C34.3851 32.1975 34.9997 30.7138 34.9997 29.1667C34.9997 27.6196 34.3851 26.1358 33.2911 25.0419C32.1972 23.9479 30.7134 23.3333 29.1663 23.3333C27.6192 23.3333 26.1355 23.9479 25.0416 25.0419C23.9476 26.1358 23.333 27.6196 23.333 29.1667C23.333 30.7138 23.9476 32.1975 25.0416 33.2915C26.1355 34.3854 27.6192 35 29.1663 35Z" fill="white"/>
<path fill-rule="evenodd" clip-rule="evenodd" d="M29.1663 26.25C29.3874 26.25 29.5993 26.3378 29.7556 26.4941C29.9119 26.6504 29.9997 26.8623 29.9997 27.0833V28.8217L30.5888 29.4108C30.7406 29.568 30.8246 29.7785 30.8227 29.997C30.8208 30.2155 30.7332 30.4245 30.5787 30.579C30.4242 30.7335 30.2152 30.8212 29.9967 30.8231C29.7782 30.825 29.5677 30.741 29.4105 30.5892L28.333 29.5117V27.0833C28.333 26.8623 28.4208 26.6504 28.5771 26.4941C28.7334 26.3378 28.9453 26.25 29.1663 26.25ZM11.6663 19.1667H9.99967V20.8333H11.6663V19.1667ZM9.99967 17.5C9.55765 17.5 9.13372 17.6756 8.82116 17.9882C8.5086 18.3007 8.33301 18.7246 8.33301 19.1667V20.8333C8.33301 21.2754 8.5086 21.6993 8.82116 22.0118C9.13372 22.3244 9.55765 22.5 9.99967 22.5H11.6663C12.1084 22.5 12.5323 22.3244 12.8449 22.0118C13.1574 21.6993 13.333 21.2754 13.333 20.8333V19.1667C13.333 18.7246 13.1574 18.3007 12.8449 17.9882C12.5323 17.6756 12.1084 17.5 11.6663 17.5H9.99967ZM18.333 19.1667H16.6663V20.8333H18.333V19.1667ZM16.6663 17.5C16.2243 17.5 15.8004 17.6756 15.4878 17.9882C15.1753 18.3007 14.9997 18.7246 14.9997 19.1667V20.8333C14.9997 21.2754 15.1753 21.6993 15.4878 22.0118C15.8004 22.3244 16.2243 22.5 16.6663 22.5H18.333C18.775 22.5 19.199 22.3244 19.5115 22.0118C19.8241 21.6993 19.9997 21.2754 19.9997 20.8333V19.1667C19.9997 18.7246 19.8241 18.3007 19.5115 17.9882C19.199 17.6756 18.775 17.5 18.333 17.5H16.6663ZM24.9997 19.1667H23.333V20.8333H24.9997V19.1667ZM23.333 17.5C22.891 17.5 22.4671 17.6756 22.1545 17.9882C21.8419 18.3007 21.6663 18.7246 21.6663 19.1667V20.8333C21.6663 21.2754 21.8419 21.6993 22.1545 22.0118C22.4671 22.3244 22.891 22.5 23.333 22.5H24.9997C25.4417 22.5 25.8656 22.3244 26.1782 22.0118C26.4907 21.6993 26.6663 21.2754 26.6663 20.8333V19.1667C26.6663 18.7246 26.4907 18.3007 26.1782 17.9882C25.8656 17.6756 25.4417 17.5 24.9997 17.5H23.333ZM11.6663 25.8333H9.99967V27.5H11.6663V25.8333ZM9.99967 24.1667C9.55765 24.1667 9.13372 24.3423 8.82116 24.6548C8.5086 24.9674 8.33301 25.3913 8.33301 25.8333V27.5C8.33301 27.942 8.5086 28.366 8.82116 28.6785C9.13372 28.9911 9.55765 29.1667 9.99967 29.1667H11.6663C12.1084 29.1667 12.5323 28.9911 12.8449 28.6785C13.1574 28.366 13.333 27.942 13.333 27.5V25.8333C13.333 25.3913 13.1574 24.9674 12.8449 24.6548C12.5323 24.3423 12.1084 24.1667 11.6663 24.1667H9.99967ZM18.333 25.8333H16.6663V27.5H18.333V25.8333ZM16.6663 24.1667C16.2243 24.1667 15.8004 24.3423 15.4878 24.6548C15.1753 24.9674 14.9997 25.3913 14.9997 25.8333V27.5C14.9997 27.942 15.1753 28.366 15.4878 28.6785C15.8004 28.9911 16.2243 29.1667 16.6663 29.1667H18.333C18.775 29.1667 19.199 28.9911 19.5115 28.6785C19.8241 28.366 19.9997 27.942 19.9997 27.5V25.8333C19.9997 25.3913 19.8241 24.9674 19.5115 24.6548C19.199 24.3423 18.775 24.1667 18.333 24.1667H16.6663Z" fill="white"/>
<path fill-rule="evenodd" clip-rule="evenodd" d="M6.66667 10C6.66667 9.77899 6.75446 9.56702 6.91074 9.41074C7.06702 9.25446 7.27899 9.16667 7.5 9.16667H11.6667V7.5H7.5C6.83696 7.5 6.20107 7.76339 5.73223 8.23223C5.26339 8.70107 5 9.33696 5 10V30C5 30.663 5.26339 31.2989 5.73223 31.7678C6.20107 32.2366 6.83696 32.5 7.5 32.5H24.3792C24.0238 31.991 23.7523 31.4283 23.575 30.8333H7.5C7.27899 30.8333 7.06702 30.7455 6.91074 30.5893C6.75446 30.433 6.66667 30.221 6.66667 30V10ZM28.3333 23.3917C28.8861 23.3126 29.4473 23.3126 30 23.3917V10C30 9.33696 29.7366 8.70107 29.2678 8.23223C28.7989 7.76339 28.163 7.5 27.5 7.5H25V9.16667H27.5C27.721 9.16667 27.933 9.25446 28.0893 9.41074C28.2455 9.56702 28.3333 9.77899 28.3333 10V23.3917ZM13.3333 9.16667H22.1358V7.5H13.3333V9.16667Z" fill="white"/>
<path fill-rule="evenodd" clip-rule="evenodd" d="M23.333 7.5H13.333V10C13.333 10.221 13.2452 10.433 13.0889 10.5893C12.9326 10.7455 12.7207 10.8333 12.4997 10.8333C12.2787 10.8333 12.0667 10.7455 11.9104 10.5893C11.7541 10.433 11.6663 10.221 11.6663 10V7.5H7.49967C7.05765 7.5 6.63372 7.6756 6.32116 7.98816C6.0086 8.30072 5.83301 8.72464 5.83301 9.16667V13.3333C5.83301 13.7754 6.0086 14.1993 6.32116 14.5118C6.63372 14.8244 7.05765 15 7.49967 15H27.4997C27.9417 15 28.3656 14.8244 28.6782 14.5118C28.9907 14.1993 29.1663 13.7754 29.1663 13.3333V9.16667C29.1663 8.72464 28.9907 8.30072 28.6782 7.98816C28.3656 7.6756 27.9417 7.5 27.4997 7.5H24.9997V10C24.9997 10.221 24.9119 10.433 24.7556 10.5893C24.5993 10.7455 24.3874 10.8333 24.1663 10.8333C23.9453 10.8333 23.7334 10.7455 23.5771 10.5893C23.4208 10.433 23.333 10.221 23.333 10V7.5Z" fill="white"/>
<path fill-rule="evenodd" clip-rule="evenodd" d="M30.0003 15H6.66699V13.3333H30.0003V15Z" fill="white"/>
<path d="M10 5.83333C10 5.61232 10.0878 5.40036 10.2441 5.24408C10.4004 5.0878 10.6123 5 10.8333 5C11.0543 5 11.2663 5.0878 11.4226 5.24408C11.5789 5.40036 11.6667 5.61232 11.6667 5.83333V9.16667C11.6667 9.38768 11.5789 9.59964 11.4226 9.75592C11.2663 9.9122 11.0543 10 10.8333 10C10.6123 10 10.4004 9.9122 10.2441 9.75592C10.0878 9.59964 10 9.38768 10 9.16667V5.83333ZM21.6667 5.83333C21.6667 5.61232 21.7545 5.40036 21.9107 5.24408C22.067 5.0878 22.279 5 22.5 5C22.721 5 22.933 5.0878 23.0893 5.24408C23.2455 5.40036 23.3333 5.61232 23.3333 5.83333V9.16667C23.3333 9.38768 23.2455 9.59964 23.0893 9.75592C22.933 9.9122 22.721 10 22.5 10C22.279 10 22.067 9.9122 21.9107 9.75592C21.7545 9.59964 21.6667 9.38768 21.6667 9.16667V5.83333Z" fill="white"/>
</svg>
