<svg width="40" height="40" viewBox="0 0 40 40" fill="none" xmlns="http://www.w3.org/2000/svg">
<path d="M24.5897 16.6667C26.1997 16.6667 27.5063 17.9733 27.5063 19.5833V25H27.4997V25.4167C27.4997 25.7482 27.368 26.0661 27.1336 26.3005C26.8991 26.535 26.5812 26.6667 26.2497 26.6667C25.9182 26.6667 25.6002 26.535 25.3658 26.3005C25.1314 26.0661 24.9997 25.7482 24.9997 25.4167V21.6667H25.0063V19.5833C25.0063 19.4728 24.9624 19.3668 24.8843 19.2887C24.8062 19.2106 24.7002 19.1667 24.5897 19.1667H15.4197C15.3092 19.1667 15.2032 19.2106 15.125 19.2887C15.0469 19.3668 15.003 19.4728 15.003 19.5833V25H14.9997V25.4167C14.9997 25.7482 14.868 26.0661 14.6336 26.3005C14.3991 26.535 14.0812 26.6667 13.7497 26.6667C13.4182 26.6667 13.1002 26.535 12.8658 26.3005C12.6314 26.0661 12.4997 25.7482 12.4997 25.4167V21.6667H12.503V19.5833C12.503 17.9733 13.808 16.6667 15.4197 16.6667H24.5897ZM34.1663 19.5833V25.4167C34.1663 25.7482 34.298 26.0661 34.5325 26.3005C34.7669 26.535 35.0848 26.6667 35.4163 26.6667C35.7479 26.6667 36.0658 26.535 36.3002 26.3005C36.5346 26.0661 36.6663 25.7482 36.6663 25.4167V19.5833C36.6663 18.8098 36.359 18.0679 35.8121 17.5209C35.2651 16.974 34.5232 16.6667 33.7497 16.6667H28.1247C28.6963 17.3583 29.0697 18.22 29.1547 19.1667H33.7497C33.8602 19.1667 33.9662 19.2106 34.0443 19.2887C34.1224 19.3668 34.1663 19.4728 34.1663 19.5833ZM3.33301 25.4167C3.33301 25.7482 3.4647 26.0661 3.69912 26.3005C3.93354 26.535 4.25149 26.6667 4.58301 26.6667C4.91453 26.6667 5.23247 26.535 5.46689 26.3005C5.70131 26.0661 5.83301 25.7482 5.83301 25.4167V19.5833C5.83301 19.4728 5.87691 19.3668 5.95505 19.2887C6.03319 19.2106 6.13917 19.1667 6.24967 19.1667H10.8547C10.9376 18.2484 11.2967 17.3768 11.8847 16.6667H6.24967C5.47613 16.6667 4.73426 16.974 4.18728 17.5209C3.6403 18.0679 3.33301 18.8098 3.33301 19.5833V25.4167ZM19.9997 5C21.3258 5 22.5975 5.52678 23.5352 6.46447C24.4729 7.40215 24.9997 8.67392 24.9997 10C24.9997 11.3261 24.4729 12.5979 23.5352 13.5355C22.5975 14.4732 21.3258 15 19.9997 15C18.6736 15 17.4018 14.4732 16.4641 13.5355C15.5265 12.5979 14.9997 11.3261 14.9997 10C14.9997 8.67392 15.5265 7.40215 16.4641 6.46447C17.4018 5.52678 18.6736 5 19.9997 5ZM19.9997 7.5C19.3366 7.5 18.7007 7.76339 18.2319 8.23223C17.7631 8.70107 17.4997 9.33696 17.4997 10C17.4997 10.663 17.7631 11.2989 18.2319 11.7678C18.7007 12.2366 19.3366 12.5 19.9997 12.5C20.6627 12.5 21.2986 12.2366 21.7674 11.7678C22.2363 11.2989 22.4997 10.663 22.4997 10C22.4997 9.33696 22.2363 8.70107 21.7674 8.23223C21.2986 7.76339 20.6627 7.5 19.9997 7.5ZM30.833 6.66667C31.9381 6.66667 32.9979 7.10565 33.7793 7.88705C34.5607 8.66846 34.9997 9.72826 34.9997 10.8333C34.9997 11.9384 34.5607 12.9982 33.7793 13.7796C32.9979 14.561 31.9381 15 30.833 15C29.7279 15 28.6681 14.561 27.8867 13.7796C27.1053 12.9982 26.6663 11.9384 26.6663 10.8333C26.6663 9.72826 27.1053 8.66846 27.8867 7.88705C28.6681 7.10565 29.7279 6.66667 30.833 6.66667ZM30.833 9.16667C30.391 9.16667 29.9671 9.34226 29.6545 9.65482C29.3419 9.96738 29.1663 10.3913 29.1663 10.8333C29.1663 11.2754 29.3419 11.6993 29.6545 12.0118C29.9671 12.3244 30.391 12.5 30.833 12.5C31.275 12.5 31.699 12.3244 32.0115 12.0118C32.3241 11.6993 32.4997 11.2754 32.4997 10.8333C32.4997 10.3913 32.3241 9.96738 32.0115 9.65482C31.699 9.34226 31.275 9.16667 30.833 9.16667ZM9.16634 6.66667C10.2714 6.66667 11.3312 7.10565 12.1126 7.88705C12.894 8.66846 13.333 9.72826 13.333 10.8333C13.333 11.9384 12.894 12.9982 12.1126 13.7796C11.3312 14.561 10.2714 15 9.16634 15C8.06127 15 7.00146 14.561 6.22006 13.7796C5.43866 12.9982 4.99967 11.9384 4.99967 10.8333C4.99967 9.72826 5.43866 8.66846 6.22006 7.88705C7.00146 7.10565 8.06127 6.66667 9.16634 6.66667ZM9.16634 9.16667C8.72431 9.16667 8.30039 9.34226 7.98783 9.65482C7.67527 9.96738 7.49967 10.3913 7.49967 10.8333C7.49967 11.2754 7.67527 11.6993 7.98783 12.0118C8.30039 12.3244 8.72431 12.5 9.16634 12.5C9.60837 12.5 10.0323 12.3244 10.3449 12.0118C10.6574 11.6993 10.833 11.2754 10.833 10.8333C10.833 10.3913 10.6574 9.96738 10.3449 9.65482C10.0323 9.34226 9.60837 9.16667 9.16634 9.16667ZM4.58301 28.3333C4.25149 28.3333 3.93354 28.465 3.69912 28.6994C3.4647 28.9339 3.33301 29.2518 3.33301 29.5833V30.4167C3.33301 32.0743 3.99149 33.664 5.16359 34.8361C6.33569 36.0082 7.9254 36.6667 9.58301 36.6667H30.4163C32.0739 36.6667 33.6637 36.0082 34.8358 34.8361C36.0079 33.664 36.6663 32.0743 36.6663 30.4167V29.5833C36.6663 29.2518 36.5346 28.9339 36.3002 28.6994C36.0658 28.465 35.7479 28.3333 35.4163 28.3333H4.58301ZM9.58301 34.1667C8.66061 34.1666 7.77058 33.8267 7.08308 33.2117C6.39557 32.5968 5.95883 31.75 5.85634 30.8333H34.143C34.0405 31.75 33.6038 32.5968 32.9163 33.2117C32.2288 33.8267 31.3387 34.1666 30.4163 34.1667H9.58301Z" fill="white"/>
</svg>
