<svg width="40" height="40" viewBox="0 0 40 40" fill="none" xmlns="http://www.w3.org/2000/svg">
<path d="M24.5907 16.6667C26.2007 16.6667 27.5073 17.9733 27.5073 19.5833V25H27.5007V25.4167C27.5007 25.7482 27.369 26.0661 27.1345 26.3005C26.9001 26.535 26.5822 26.6667 26.2507 26.6667C25.9191 26.6667 25.6012 26.535 25.3668 26.3005C25.1323 26.0661 25.0007 25.7482 25.0007 25.4167V21.6667H25.0073V19.5833C25.0073 19.4728 24.9634 19.3668 24.8853 19.2887C24.8071 19.2106 24.7012 19.1667 24.5907 19.1667H15.4207C15.3101 19.1667 15.2042 19.2106 15.126 19.2887C15.0479 19.3668 15.004 19.4728 15.004 19.5833V25H15.0007V25.4167C15.0007 25.7482 14.869 26.0661 14.6345 26.3005C14.4001 26.535 14.0822 26.6667 13.7507 26.6667C13.4191 26.6667 13.1012 26.535 12.8668 26.3005C12.6323 26.0661 12.5007 25.7482 12.5007 25.4167V21.6667H12.504V19.5833C12.504 17.9733 13.809 16.6667 15.4207 16.6667H24.5907V16.6667ZM34.1673 19.5833V25.4167C34.1673 25.7482 34.299 26.0661 34.5334 26.3005C34.7679 26.535 35.0858 26.6667 35.4173 26.6667C35.7488 26.6667 36.0668 26.535 36.3012 26.3005C36.5356 26.0661 36.6673 25.7482 36.6673 25.4167V19.5833C36.6673 18.8098 36.36 18.0679 35.813 17.5209C35.2661 16.974 34.5242 16.6667 33.7507 16.6667H28.1257C28.6973 17.3583 29.0707 18.22 29.1557 19.1667H33.7507C33.8612 19.1667 33.9671 19.2106 34.0453 19.2887C34.1234 19.3668 34.1673 19.4728 34.1673 19.5833ZM3.33398 25.4167C3.33398 25.7482 3.46568 26.0661 3.7001 26.3005C3.93452 26.535 4.25246 26.6667 4.58398 26.6667C4.9155 26.6667 5.23345 26.535 5.46787 26.3005C5.70229 26.0661 5.83398 25.7482 5.83398 25.4167V19.5833C5.83398 19.4728 5.87788 19.3668 5.95602 19.2887C6.03416 19.2106 6.14014 19.1667 6.25065 19.1667H10.8557C10.9385 18.2484 11.2976 17.3768 11.8857 16.6667H6.25065C5.4771 16.6667 4.73524 16.974 4.18826 17.5209C3.64128 18.0679 3.33398 18.8098 3.33398 19.5833V25.4167ZM20.0007 5C21.3267 5 22.5985 5.52678 23.5362 6.46447C24.4739 7.40215 25.0007 8.67392 25.0007 10C25.0007 11.3261 24.4739 12.5979 23.5362 13.5355C22.5985 14.4732 21.3267 15 20.0007 15C18.6746 15 17.4028 14.4732 16.4651 13.5355C15.5274 12.5979 15.0007 11.3261 15.0007 10C15.0007 8.67392 15.5274 7.40215 16.4651 6.46447C17.4028 5.52678 18.6746 5 20.0007 5V5ZM20.0007 7.5C19.3376 7.5 18.7017 7.76339 18.2329 8.23223C17.764 8.70107 17.5007 9.33696 17.5007 10C17.5007 10.663 17.764 11.2989 18.2329 11.7678C18.7017 12.2366 19.3376 12.5 20.0007 12.5C20.6637 12.5 21.2996 12.2366 21.7684 11.7678C22.2373 11.2989 22.5007 10.663 22.5007 10C22.5007 9.33696 22.2373 8.70107 21.7684 8.23223C21.2996 7.76339 20.6637 7.5 20.0007 7.5ZM30.834 6.66667C31.9391 6.66667 32.9989 7.10565 33.7803 7.88706C34.5617 8.66846 35.0007 9.72826 35.0007 10.8333C35.0007 11.9384 34.5617 12.9982 33.7803 13.7796C32.9989 14.561 31.9391 15 30.834 15C29.7289 15 28.6691 14.561 27.8877 13.7796C27.1063 12.9982 26.6673 11.9384 26.6673 10.8333C26.6673 9.72826 27.1063 8.66846 27.8877 7.88706C28.6691 7.10565 29.7289 6.66667 30.834 6.66667ZM30.834 9.16667C30.392 9.16667 29.968 9.34226 29.6555 9.65482C29.3429 9.96738 29.1673 10.3913 29.1673 10.8333C29.1673 11.2754 29.3429 11.6993 29.6555 12.0118C29.968 12.3244 30.392 12.5 30.834 12.5C31.276 12.5 31.6999 12.3244 32.0125 12.0118C32.3251 11.6993 32.5007 11.2754 32.5007 10.8333C32.5007 10.3913 32.3251 9.96738 32.0125 9.65482C31.6999 9.34226 31.276 9.16667 30.834 9.16667ZM9.16732 6.66667C10.2724 6.66667 11.3322 7.10565 12.1136 7.88706C12.895 8.66846 13.334 9.72826 13.334 10.8333C13.334 11.9384 12.895 12.9982 12.1136 13.7796C11.3322 14.561 10.2724 15 9.16732 15C8.06225 15 7.00244 14.561 6.22104 13.7796C5.43964 12.9982 5.00065 11.9384 5.00065 10.8333C5.00065 9.72826 5.43964 8.66846 6.22104 7.88706C7.00244 7.10565 8.06225 6.66667 9.16732 6.66667V6.66667ZM9.16732 9.16667C8.72529 9.16667 8.30137 9.34226 7.98881 9.65482C7.67625 9.96738 7.50065 10.3913 7.50065 10.8333C7.50065 11.2754 7.67625 11.6993 7.98881 12.0118C8.30137 12.3244 8.72529 12.5 9.16732 12.5C9.60935 12.5 10.0333 12.3244 10.3458 12.0118C10.6584 11.6993 10.834 11.2754 10.834 10.8333C10.834 10.3913 10.6584 9.96738 10.3458 9.65482C10.0333 9.34226 9.60935 9.16667 9.16732 9.16667ZM4.58398 28.3333C4.25246 28.3333 3.93452 28.465 3.7001 28.6994C3.46568 28.9339 3.33398 29.2518 3.33398 29.5833V30.4167C3.33398 32.0743 3.99246 33.664 5.16457 34.8361C6.33667 36.0082 7.92638 36.6667 9.58398 36.6667H30.4173C32.0749 36.6667 33.6646 36.0082 34.8367 34.8361C36.0088 33.664 36.6673 32.0743 36.6673 30.4167V29.5833C36.6673 29.2518 36.5356 28.9339 36.3012 28.6994C36.0668 28.465 35.7488 28.3333 35.4173 28.3333H4.58398ZM9.58398 34.1667C8.66159 34.1666 7.77156 33.8267 7.08406 33.2117C6.39655 32.5968 5.95981 31.75 5.85732 30.8333H34.144C34.0415 31.75 33.6048 32.5968 32.9172 33.2117C32.2297 33.8267 31.3397 34.1666 30.4173 34.1667H9.58398Z" fill="black"/>
</svg>
