<?xml version="1.0" encoding="utf-8"?>
<!-- Generator: Adobe Illustrator 22.0.0, SVG Export Plug-In . SVG Version: 6.00 Build 0)  -->
<svg version="1.1" id="logo" xmlns="http://www.w3.org/2000/svg" xmlns:xlink="http://www.w3.org/1999/xlink" x="0px" y="0px"
	 viewBox="0 0 443.7 90.8" style="enable-background:new 0 0 443.7 90.8;" xml:space="preserve">
<style type="text/css">
	.st0{fill:#93C6E0;}
	.st1{fill:#F96302;}
	.st2{fill:#BAD80A;}
	.st3{fill:#6693BC;}
	.st4{fill:#56AA1C;}
	.st5{fill:#231F46;}
	.st6{fill:#1D1531;}
</style>
<title>SC_Logo horizontal_pt</title>
<path class="st0" d="M30,4.4c-0.2-0.9,1.4-2.2,3.5-2.9s4.2-0.5,4.4,0.4s-1.3,2.2-3.5,2.9S30.3,5.3,30,4.4z"/>
<path class="st0" d="M27.4,9.6c-0.3-0.4,0.2-1.3,1.1-2s1.8-1,2.1-0.6s-0.2,1.3-1.1,2S27.7,10,27.4,9.6z"/>
<path class="st1" d="M77.5,75.7c-0.4,0.6-1.1,1-1.8,1c-0.6,0-1.2-0.5-1.2-1.1c0-0.3,0.1-0.6,0.3-0.8c0.1-0.2,0.2-0.3,0.4-0.6
	c0.2-0.3,0.3-0.6,0.5-0.9c0.2-1,0.2-2,0-2.9c-0.1-0.2,0-0.5,0.2-0.7c0.2-0.2,0.6-0.2,0.8,0C78.4,71.3,78.7,73.8,77.5,75.7z"/>
<path class="st2" d="M53.1,13.5c-7.8,2.7-12.5,6.7-16.7,14c-2.1,3.6-3.3,7.7-3.6,11.9c-0.1,0.7-0.7,0.8-1.1,0.2
	c-7.4-15.2-0.9-32.1,14-38.4c7-3,12.8-0.4,13,5.1C58.8,9.5,57.1,12.1,53.1,13.5z"/>
<path class="st3" d="M84.3,31.5c-0.2-0.5,0.2-1.3,0.9-1.7s1.5-0.4,1.7,0.2s-0.2,1.3-0.9,1.7S84.5,32,84.3,31.5z"/>
<path class="st2" d="M83.2,33.2c0.7-0.6,2.4-0.2,3.8,1s1.9,2.7,1.2,3.3s-2.4,0.2-3.8-1S82.4,33.8,83.2,33.2z"/>
<path class="st3" d="M79.7,51.3c0.7-4.1,1.4-6.9,0-10.9c-0.8-2.2-2-4.1-3.7-5.7c-0.3-0.3-0.1-0.6,0.3-0.5
	c8.5,1.8,13.3,12.3,10.6,18.8c-0.9,2-2.4,3.7-4.7,3.2C80.1,55.7,79.4,53.4,79.7,51.3z"/>
<path class="st0" d="M61.9,50.7c-0.8-0.1-1.4-0.7-1.5-1.4c-0.2-0.8,0.3-1.5,0.9-1.6c0.8,0.1,1.4,0.7,1.5,1.5
	C63,50,62.6,50.7,61.9,50.7z"/>
<path class="st0" d="M80.7,65.3c0.2-0.3,0.9-0.4,1.6-0.2s1.1,0.7,1,1s-0.9,0.4-1.6,0.2S80.5,65.6,80.7,65.3z"/>
<path class="st0" d="M78.1,65.6c1-0.3,2.2,0.6,2.8,1.9s0.3,2.7-0.7,3s-2.2-0.6-2.8-1.9S77.1,65.9,78.1,65.6z"/>
<path class="st0" d="M60.3,76.3c2.5-5,5-8.9,4.7-15c-0.2-3.1-1-6.1-2.4-8.9c-0.3-0.6,0.1-1.2,0.9-0.8c12,7.5,12.6,22.1,6.3,29.7
	c-2.4,2.9-8.8,5.8-10.8,2C57.7,80.8,59,78.8,60.3,76.3z"/>
<path class="st2" d="M51.1,89.5c-0.4-0.9,0.8-2.4,2.7-3.5s3.8-1.2,4.2-0.3s-0.8,2.4-2.7,3.5S51.6,90.4,51.1,89.5z"/>
<path class="st4" d="M15.4,59.7c10.3,0.6,16.8,0.8,25.3-4.6c4.1-2.6,6.3-4.3,9-8.5c0.2-0.4,0.7-0.6,1.1-0.4c0.3,0.1,0.5,0.4,0.5,0.8
	C53.5,68.2,32.7,80.2,15,77.3C6.8,76,0.9,69.2,4.5,62.9C6.6,59.3,10.8,59.5,15.4,59.7z"/>
<path class="st0" d="M36.2,80.1c-0.2-1.2,1.5-2.5,3.8-2.9s4.3,0.1,4.4,1.3s-1.5,2.5-3.8,2.9S36.4,81.2,36.2,80.1z"/>
<path class="st0" d="M12.6,58.1c-0.6,0.6-1.6,0.6-2.3,0.2c-0.9-0.5-1.3-1.3-1-1.8c0.6-0.6,1.6-0.6,2.3-0.2
	C12.6,56.7,13,57.5,12.6,58.1z"/>
<path class="st0" d="M9.2,39.4c0.9,0,1.7,1,1.8,2.3S10.5,44,9.6,44s-1.7-1-1.8-2.3S8.3,39.4,9.2,39.4z"/>
<path class="st0" d="M20.4,80.8c0-0.3,0.5-0.6,1.2-0.6s1.1,0.2,1.1,0.4s-0.5,0.6-1.2,0.6S20.4,81.1,20.4,80.8z"/>
<path class="st0" d="M16.3,80.6c0.3-0.5,1.3-0.6,2.4-0.2s1.7,1.1,1.4,1.6s-1.3,0.6-2.4,0.2S16,81.1,16.3,80.6z"/>
<path class="st0" d="M20.9,41.8c5.4,2.7,9.7,5.6,16.3,5c3.3-0.2,6.6-1.2,9.5-3c0.5-0.3,0.8,0.2,0.6,0.7c-6,11.4-21,15.3-29.7,8.5
	c-4.1-3.2-6.4-7.6-4.1-10.7C15.2,40,17.8,40.3,20.9,41.8z"/>
<path class="st0" d="M6.8,45c0.3,1.5,1,2.9,2.1,4c1.1,1.3,2.6,2.2,4.2,2.8c0.5,0.2,0.3,0.8-0.1,0.9C6.3,54-0.3,49.6,0,41.5
	c0.1-1.8,0.6-3.5,2.5-3.8c1.8-0.3,3,1.2,3.4,2.8S6.5,43.6,6.8,45z"/>
<path class="st2" d="M52.2,42.6c-1.5-1.1-3.2-1.8-5.1-2c-2-0.2-4.1,0-6,0.8c-0.7,0.2-0.9-0.5-0.6-0.9c5-6.4,14.9-7.9,20.2-1.3
	c1.6,2,2.5,4.7,0.7,6.3c-1.6,1.3-3.9,1.3-5.4,0C54.2,44.3,53.7,43.7,52.2,42.6z"/>
<path class="st2" d="M47.7,68.7c3-4,5.8-7,6.4-12.4c0.3-2.7,0.1-5.5-0.7-8.2c-0.1-0.6,0.3-1,0.9-0.6c9.4,8.4,7.6,21.3,0.9,26.9
	c-2.6,2.2-8.6,3.7-9.8,0.1C44.7,72.3,46.2,70.7,47.7,68.7z"/>
<path class="st4" d="M36.5,83.3c4.1,0.6,6.9,1,10.9-0.5c2-0.6,3.8-1.6,5.3-3c0.5-0.5,1.3-0.3,1,0.4c-3,7.7-10.5,12.8-18.8,9.5
	c-2-0.8-4-2.8-3.1-4.9C32.6,83.1,34.4,83,36.5,83.3z"/>
<path class="st2" d="M10.4,28.4c0.3,1.6,0.9,3.2,1.9,4.6c0.9,1.5,2.1,2.9,3.6,3.9c0.2,0.2,0.3,0.5,0.1,0.7c-0.1,0.1-0.2,0.2-0.4,0.2
	C9,37.2,2.8,30.9,4.1,23.7c0.4-2,2.1-4.5,4.2-3.8c1.6,0.6,2,2.2,1.9,3.9C10.1,25.3,10.1,26.9,10.4,28.4z"/>
<path class="st3" d="M71.8,29.4c-4.9-4.5-8.8-6.4-15.3-6.8c-3.7-0.2-7.4,0.4-10.8,2c-0.6,0.2-0.9-0.3-0.6-0.8
	c8.1-11.5,24.4-13.8,34.6-4.4c3.3,3.1,4.3,7.4,1.5,10.3C78.5,32,74.4,31.8,71.8,29.4z"/>
<path class="st4" d="M80.2,58.8c1.2-0.1,2.5-0.4,3.7-0.8c0.9-0.3,1.9,0.3,2.2,1.2c0.1,0.2,0.1,0.4,0.1,0.7c-0.1,1.4-1.1,2.5-2.4,2.8
	c-4.7,1.5-9-0.9-10.9-5c-0.2-0.5,0.2-0.8,0.6-0.5C75.5,58.5,77.8,59,80.2,58.8z"/>
<path class="st1" d="M4.2,57c-0.6,0.5-1.2,1.2-1.7,1.8c-0.4,0.5-1.1,0.6-1.6,0.2c-0.1-0.1-0.2-0.2-0.3-0.4c-0.5-0.8-0.4-1.8,0.2-2.6
	c2-2.6,5.2-2.9,7.9-1c0.2,0.1,0.2,0.3,0.1,0.5c-0.1,0.1-0.2,0.1-0.3,0.2C6.9,55.5,5.4,56,4.2,57z"/>
<path class="st1" d="M42.8,34.5c1.5-1.1,3.1-2,4.8-2.8c2.3-1.2,1.4-3.5,0.6-4.3c-1.5-1.6-3.5-1.5-5.4-0.7c-5.7,2.4-8.9,9.9-6.9,16.4
	c0.3,0.8,1,0.7,1.2,0C38,39.7,40,36.7,42.8,34.5z"/>
<path class="st2" d="M26.8,86.7c-0.2,0.8-1.1,1.3-2,1.1c-0.2-0.1-0.4-0.2-0.6-0.3c-0.9-0.9-1.2-2.2-0.8-3.3c1.1-3.8,4.9-6.1,8.8-5.4
	c0.4,0.1,0.6,0.5,0.5,0.9c-0.1,0.2-0.2,0.4-0.4,0.4c-1.4,0.7-2.7,1.8-3.7,3C27.8,84.3,27.2,85.5,26.8,86.7z"/>
<path class="st1" d="M25.1,15.7c-1,5.5-2.2,10-0.1,15.7c1.1,2.9,2.7,5.6,4.9,7.8c0.4,0.5,0.2,1.2-0.6,1C15.6,36.6,11,22.6,14.7,13.4
	c1.5-3.7,6.5-7.7,9.7-4.8C26.4,10.4,25.6,12.9,25.1,15.7z"/>
<path class="st4" d="M67.3,47.3c-1.9-5.3-3.1-9.7-7.8-13.7c-2.4-2-5.1-3.5-8.1-4.3c-0.6-0.2-0.8-0.9,0-1.2
	c13.7-3.7,24.6,6.1,26.1,15.9c0.6,4-1,9.5-6,9C68.8,52.8,68.3,50,67.3,47.3z"/>
<path class="st2" d="M64,6.7c0.1-0.6-0.1-1.3-0.6-1.7c-0.4-0.4-1-0.4-1.4,0.1c-0.2,0.2-0.3,0.5-0.3,0.7c0,0.2,0,0.3-0.1,0.6
	c0,0.3-0.1,0.6-0.2,0.9c-0.3,0.8-0.9,1.5-1.6,2c-0.2,0.1-0.3,0.4-0.2,0.6c0.1,0.3,0.3,0.4,0.6,0.4C62.2,10.2,63.8,8.7,64,6.7z"/>
<path class="st0" d="M61.7,11.4c0,0.4,0.7,0.7,1.4,0.6s1.3-0.6,1.2-1s-0.7-0.7-1.4-0.6S61.7,10.9,61.7,11.4z"/>
<path class="st0" d="M63,11.2"/>
<path class="st5" d="M108.6,74.8c0.4,0,0.8-0.1,1-0.4l1.6-1.5c0.2-0.1,0.3-0.3,0.3-0.5c0-0.3-0.6-0.6-1.1-0.6
	c-0.3,0-0.6,0.2-0.8,0.5l-1.3,1.9c-0.1,0.1-0.1,0.2-0.1,0.3C108.2,74.6,108.3,74.8,108.6,74.8z M104.1,90.5h9.1
	c0.4,0,0.7-0.4,0.7-0.8c0-0.3-0.3-0.6-0.7-0.7H105v-5.1h7.3c0.4,0,0.7-0.3,0.7-0.7c0,0,0,0,0,0c0-0.4-0.3-0.7-0.7-0.7H105v-5h8.2
	c0.4,0,0.8-0.2,0.8-0.7s-0.2-0.8-0.7-0.8c-0.1,0-0.1,0-0.2,0h-9c-0.5,0-0.8,0.4-0.8,0.8c0,0,0,0,0,0v12.9
	C103.4,90.1,103.7,90.5,104.1,90.5z"/>
<path class="st5" d="M132.5,76.1c0-0.4-0.3-0.8-0.8-0.8c0,0,0,0,0,0c-0.4,0-0.8,0.3-0.8,0.8c0,0,0,0,0,0v5.8
	c-0.9-1.4-2.4-2.3-4.1-2.3c-2.9,0.1-5.2,2.5-5.1,5.4c0,0.1,0,0.1,0,0.2l0,0c-0.2,2.9,2,5.4,4.9,5.6c0.1,0,0.2,0,0.2,0
	c1.7,0,3.3-0.9,4.1-2.4v1.4c0,0.4,0.3,0.8,0.7,0.9c0.4,0,0.8-0.3,0.9-0.7c0-0.1,0-0.1,0-0.2V76.1z M127.1,81c2.2,0.1,4,1.9,3.9,4.1
	c0,0,0,0,0,0l0,0c0.1,2.2-1.6,4.1-3.8,4.1c0,0,0,0,0,0c-2.1,0-3.8-1.8-3.8-3.9c0,0,0-0.1,0-0.1l0,0c-0.2-2.1,1.3-3.9,3.3-4.2
	C126.8,81,127,81,127.1,81z"/>
<path class="st5" d="M138.9,90.7c1.5,0,2.9-0.6,3.9-1.8v1c0,0.4,0.3,0.7,0.7,0.8c0,0,0,0,0,0c0.4,0,0.8-0.3,0.8-0.8c0,0,0,0,0,0
	v-5.9c0.1-1.1-0.3-2.3-1.1-3.1c-0.9-0.8-2.2-1.3-3.5-1.2c-1.2,0-2.4,0.2-3.5,0.7c-0.3,0.1-0.4,0.4-0.4,0.7c0,0.4,0.3,0.7,0.7,0.7
	c0.1,0,0.2,0,0.3-0.1c0.9-0.4,1.8-0.6,2.8-0.6c2,0,3.2,1,3.2,2.9v0.4c-1.1-0.3-2.2-0.5-3.3-0.5c-2.7,0-4.6,1.2-4.6,3.5l0,0
	C134.9,89.6,136.9,90.7,138.9,90.7z M139.2,89.5c-1.4,0-2.7-0.8-2.7-2.1l0,0c0-1.3,1.1-2.2,3.1-2.2c1.1,0,2.1,0.2,3.1,0.5v1
	C142.7,88.2,141.1,89.5,139.2,89.5z"/>
<path class="st5" d="M153,89.8c0,0.4,0.3,0.8,0.8,0.8c0,0,0,0,0,0c0.4,0,0.8-0.3,0.8-0.8c0,0,0,0,0,0v-5.4c-0.1-1.7,1.2-3.2,2.9-3.4
	c0.1,0,0.2,0,0.3,0c1.9,0,3,1.2,3,3.2v5.6c0,0.4,0.4,0.8,0.8,0.8s0.8-0.4,0.8-0.8v-6c0-2.6-1.5-4.3-4.1-4.3
	c-1.5-0.1-2.9,0.8-3.7,2.1v-1.1c0-0.4-0.4-0.8-0.8-0.8S153,80,153,80.5L153,89.8z"/>
<path class="st6" d="M170.3,90.7c3.1,0,5.6-2.4,5.6-5.5c0,0,0-0.1,0-0.1l0,0c-0.1-3.1-2.7-5.5-5.8-5.3c-2.9,0.1-5.2,2.4-5.3,5.3v0
	c0,3,2.4,5.5,5.4,5.6C170.2,90.7,170.2,90.7,170.3,90.7z M170.3,89.3c-2.2,0-4-1.8-4-4c0-0.1,0-0.1,0-0.2l0,0
	c-0.1-2.2,1.6-4.1,3.9-4.1c0,0,0,0,0.1,0c2.2,0,4,1.8,4,4c0,0.1,0,0.1,0,0.2l0,0C174.3,87.4,172.5,89.2,170.3,89.3
	C170.3,89.3,170.3,89.3,170.3,89.3L170.3,89.3z"/>
<path class="st5" d="M181.9,90.7c2.1,0,3.8-1.2,3.8-3.2l0,0c0-1.9-1.8-2.6-3.4-3.1c-1.4-0.4-2.8-0.8-2.8-1.8l0,0
	c0-0.9,0.8-1.6,2.1-1.6c1,0,1.9,0.3,2.8,0.8c0.1,0.1,0.2,0.1,0.4,0.1c0.4,0,0.7-0.3,0.7-0.7c0,0,0,0,0,0c0-0.3-0.2-0.5-0.4-0.7
	c-1.1-0.6-2.2-0.9-3.4-0.9c-2.1,0-3.6,1.2-3.6,3.1l0,0c0,2,1.9,2.6,3.5,3c1.4,0.4,2.7,0.8,2.7,1.9l0,0c0,1-0.9,1.7-2.2,1.7
	c-1.2,0-2.4-0.4-3.4-1.1c-0.1-0.1-0.3-0.1-0.4-0.1c-0.4,0-0.7,0.3-0.7,0.7c0,0,0,0,0,0c0,0.2,0.1,0.4,0.3,0.6
	C179,90.2,180.4,90.7,181.9,90.7z"/>
<path class="st5" d="M191.6,90.7c2.1,0,3.8-1.2,3.8-3.2l0,0c0-1.9-1.8-2.6-3.4-3.1c-1.4-0.4-2.8-0.8-2.8-1.8l0,0
	c0-0.9,0.8-1.6,2.1-1.6c1,0,1.9,0.3,2.8,0.8c0.1,0.1,0.2,0.1,0.4,0.1c0.4,0,0.7-0.3,0.7-0.7c0,0,0,0,0,0c0-0.3-0.2-0.5-0.4-0.7
	c-1.1-0.6-2.2-0.9-3.4-0.9c-2.1,0-3.6,1.2-3.6,3.1l0,0c0,2,1.9,2.6,3.5,3c1.4,0.4,2.7,0.8,2.7,1.9l0,0c0,1-0.9,1.7-2.2,1.7
	c-1.2,0-2.4-0.4-3.4-1.1c-0.1-0.1-0.3-0.1-0.4-0.1c-0.4,0-0.7,0.3-0.7,0.7c0,0,0,0,0,0c0,0.2,0.1,0.4,0.3,0.6
	C188.6,90.2,190.1,90.7,191.6,90.7z"/>
<path class="st5" d="M201.1,90.7c1.5,0,3-0.6,3.9-1.8v1c0,0.4,0.3,0.7,0.7,0.8c0,0,0,0,0,0c0.4,0,0.8-0.3,0.8-0.7c0,0,0,0,0,0v-5.9
	c0.1-1.1-0.3-2.3-1.1-3.1c-0.9-0.8-2.2-1.3-3.4-1.2c-1.2,0-2.4,0.2-3.5,0.7c-0.3,0.1-0.4,0.4-0.4,0.7c0,0.4,0.3,0.7,0.7,0.7
	c0.1,0,0.2,0,0.3-0.1c0.9-0.4,1.8-0.6,2.8-0.6c2,0,3.2,1,3.2,2.9v0.4c-1.1-0.3-2.2-0.5-3.3-0.5c-2.7,0-4.6,1.2-4.6,3.5l0,0
	C197.1,89.6,199.1,90.7,201.1,90.7z M201.4,89.5c-1.4,0-2.7-0.8-2.7-2.1l0,0c0-1.3,1.1-2.2,3.1-2.2c1.1,0,2.1,0.2,3.1,0.5v1
	C205,88.2,203.4,89.5,201.4,89.5z"/>
<path class="st5" d="M215.3,89.8c0,0.4,0.3,0.8,0.8,0.8c0,0,0,0,0,0c0.4,0,0.8-0.3,0.8-0.8c0,0,0,0,0,0v-5.4c-0.1-1.7,1.2-3.2,3-3.4
	c0.1,0,0.2,0,0.3,0c1.9,0,3,1.2,3,3.2v5.6c0,0.4,0.3,0.8,0.7,0.9c0.4,0,0.8-0.3,0.9-0.7c0-0.1,0-0.1,0-0.2v-6c0-2.6-1.5-4.3-4.1-4.3
	c-1.5,0-2.9,0.8-3.7,2.1v-1.1c0-0.4-0.3-0.8-0.8-0.8c0,0,0,0,0,0c-0.4,0-0.8,0.4-0.8,0.8c0,0,0,0,0,0L215.3,89.8z"/>
<path class="st5" d="M230.8,90.7c1.5,0,3-0.6,3.9-1.8v1c0,0.4,0.3,0.7,0.7,0.8c0,0,0,0,0,0c0.4,0,0.8-0.3,0.8-0.8c0,0,0,0,0,0v-5.9
	c0.1-1.1-0.3-2.3-1.1-3.1c-0.9-0.8-2.2-1.3-3.5-1.2c-1.2,0-2.4,0.2-3.5,0.7c-0.3,0.1-0.4,0.4-0.4,0.7c0,0.4,0.3,0.7,0.7,0.7
	c0.1,0,0.2,0,0.3-0.1c0.9-0.4,1.8-0.6,2.8-0.6c2,0,3.2,1,3.2,2.9v0.4c-1.1-0.3-2.2-0.5-3.3-0.5c-2.7,0-4.6,1.2-4.6,3.5l0,0
	C226.8,89.6,228.8,90.7,230.8,90.7z M231.1,89.5c-1.4,0-2.7-0.8-2.7-2.1l0,0c0-1.3,1.1-2.2,3.1-2.2c1.1,0,2.1,0.2,3.1,0.5v1
	C234.7,88.2,233.1,89.5,231.1,89.5z"/>
<path class="st5" d="M242.7,90.7c0.5,0,1.1-0.1,1.6-0.3c0.3-0.1,0.5-0.3,0.4-0.6c0-0.4-0.3-0.7-0.7-0.7c-0.3,0.1-0.7,0.1-1,0.2
	c-0.9,0.1-1.7-0.5-1.8-1.3c0-0.1,0-0.3,0-0.4v-6.3h2.8c0.4,0,0.7-0.3,0.7-0.7c0-0.4-0.3-0.7-0.7-0.7h-2.8v-2.5
	c0-0.4-0.4-0.8-0.8-0.8c-0.4,0-0.8,0.4-0.8,0.8c0,0,0,0,0,0v2.5h-0.9c-0.4,0-0.7,0.2-0.8,0.6c0,0.4,0.2,0.7,0.6,0.8
	c0.1,0,0.1,0,0.2,0h0.9v6.5c-0.2,1.5,0.9,2.8,2.4,3C242.2,90.7,242.5,90.7,242.7,90.7z"/>
<path class="st5" d="M256.2,80.5c0-0.4-0.3-0.8-0.8-0.8c0,0,0,0,0,0c-0.4,0-0.8,0.3-0.8,0.8c0,0,0,0,0,0v5.4c0.1,1.7-1.2,3.2-3,3.4
	c-0.1,0-0.2,0-0.2,0c-1.9,0-3-1.2-3-3.2v-5.6c0-0.4-0.4-0.8-0.8-0.8c-0.4,0-0.8,0.3-0.8,0.8c0,0,0,0,0,0v6c0,2.6,1.5,4.3,4.1,4.3
	c1.5,0,2.9-0.8,3.7-2.1v1.2c0,0.4,0.4,0.8,0.8,0.8c0.4,0,0.8-0.4,0.8-0.8L256.2,80.5z"/>
<path class="st5" d="M259.4,89.8c0,0.4,0.4,0.8,0.8,0.8c0.4,0,0.8-0.4,0.8-0.8c0,0,0,0,0,0v-3.6c0-3.1,1.7-4.6,3.8-4.9
	c0.4-0.1,0.7-0.4,0.7-0.8c0-0.4-0.3-0.8-0.7-0.8c0,0,0,0-0.1,0c-1.7,0.2-3.1,1.3-3.7,2.8v-2c0-0.4-0.3-0.8-0.8-0.8c0,0,0,0,0,0
	c-0.4,0-0.8,0.4-0.8,0.8V89.8z"/>
<path class="st5" d="M267.9,84.5c0.2-2.1,1.6-3.7,3.5-3.7c2.1,0,3.3,1.7,3.4,3.7H267.9z M275.6,89.1c0.2-0.1,0.2-0.3,0.3-0.5
	c0-0.4-0.3-0.7-0.7-0.7c0,0,0,0,0,0c-0.2,0-0.3,0.1-0.5,0.2c-0.8,0.8-1.9,1.2-3.1,1.2c-2,0-3.7-1.6-3.8-3.6h7.8
	c0.4,0,0.7-0.3,0.8-0.7c0-2.8-1.8-5.4-5-5.4c-2.9,0.1-5.2,2.5-5.1,5.4c0,0.1,0,0.1,0,0.2l0,0c-0.1,2.9,2.1,5.4,5.1,5.6
	c0.1,0,0.2,0,0.3,0C273.1,90.8,274.6,90.2,275.6,89.1L275.6,89.1z"/>
<path class="st5" d="M278.6,90.5h7.9c0.4,0,0.7-0.3,0.7-0.7c0-0.4-0.3-0.7-0.7-0.7c0,0,0,0,0,0H280l6.8-8c0.2-0.2,0.3-0.4,0.3-0.7
	l0,0c0-0.4-0.4-0.7-0.8-0.7h-7.6c-0.4,0-0.7,0.3-0.7,0.7c0,0.4,0.3,0.7,0.7,0.7c0,0,0,0,0,0h6.3l-6.8,8c-0.2,0.2-0.3,0.5-0.3,0.7
	l0,0C277.9,90.2,278.2,90.5,278.6,90.5z"/>
<path class="st5" d="M292.7,90.7c1.5,0,3-0.6,3.9-1.8v1c0,0.4,0.3,0.7,0.7,0.8c0,0,0,0,0,0c0.4,0,0.8-0.3,0.8-0.7c0,0,0,0,0,0v-5.9
	c0.1-1.1-0.3-2.3-1.1-3.1c-0.9-0.8-2.2-1.3-3.5-1.2c-1.2,0-2.4,0.2-3.5,0.7c-0.3,0.1-0.4,0.4-0.4,0.7c0,0.4,0.3,0.7,0.7,0.7
	c0.1,0,0.2,0,0.3-0.1c0.9-0.4,1.8-0.6,2.8-0.6c2,0,3.2,1,3.2,2.9v0.4c-1.1-0.3-2.2-0.5-3.3-0.5c-2.7,0-4.6,1.2-4.6,3.5l0,0
	C288.7,89.6,290.8,90.7,292.7,90.7z M293,89.5c-1.5,0-2.7-0.8-2.7-2.1l0,0c0-1.3,1.1-2.2,3.1-2.2c1.1,0,2.1,0.2,3.1,0.5v1
	C296.6,88.2,295,89.5,293,89.5z"/>
<path class="st5" d="M300.9,89.2v0.4c0,0.6,0.4,1,1,1s1-0.4,1-1v-0.4c0-0.6-0.4-1-1-1S300.9,88.6,300.9,89.2z"/>
<path class="st6" d="M250.2,49.9c-1.8,0-3.3-1.5-3.3-3.3c0-1.8,1.5-3.3,3.3-3.3h4.3v-4.2c-0.1-1.8,1.3-3.3,3.1-3.4
	c1.8-0.1,3.3,1.3,3.4,3.1c0,0.1,0,0.2,0,0.4v4.2h4.3c1.8,0,3.3,1.5,3.3,3.3c0,1.8-1.5,3.3-3.3,3.3h-4.3v4.2c0.1,1.8-1.3,3.3-3.1,3.4
	s-3.3-1.3-3.4-3.1c0-0.1,0-0.2,0-0.4v-4.3H250.2z M417,60.5c-5.1,0-9.4-3-9.4-8.3c0-6,4.5-8.8,11-8.8c2.3,0,4.5,0.4,6.7,1.1V44
	c0-3.2-2-5-5.9-5c-1.8,0-3.6,0.2-5.3,0.8c-0.4,0.1-0.7,0.2-1.1,0.2c-1.7,0-3.2-1.4-3.2-3.1c0,0,0,0,0-0.1c0-1.3,0.8-2.5,2.1-3
	c2.8-1,5.7-1.5,8.7-1.4c4.2,0,7.3,1.1,9.2,3s3,5,3,8.7v12.4c0,2.1-1.6,3.7-3.7,3.7c0,0-0.1,0-0.1,0c-1.9,0.1-3.6-1.3-3.7-3.2
	c0,0,0,0,0,0C423.2,59.4,420.1,60.6,417,60.5z M419.4,55.2c3.6,0,6-2,6-4.8V49c-1.6-0.7-3.2-1-4.9-1c-3.3,0-5.3,1.3-5.3,3.8
	C415.1,53.9,416.9,55.2,419.4,55.2z M436,56.4v-30c-0.1-2.1,1.5-4,3.7-4.1c2.1-0.1,4,1.5,4.1,3.7c0,0.1,0,0.3,0,0.4v30
	c0.1,2.1-1.5,4-3.7,4.1s-4-1.5-4.1-3.7C436,56.7,436,56.6,436,56.4z M286.9,60.6c-7.8,0-14.2-6.4-14.1-14.2
	c0-7.8,6.4-14.2,14.2-14.1c3.4-0.2,6.7,0.9,9.3,3.1c0.8,0.7,1.2,1.6,1.2,2.6c0,1.9-1.6,3.5-3.5,3.5c0,0,0,0,0,0
	c-0.8,0-1.6-0.3-2.2-0.8c-1.3-1.1-3-1.7-4.8-1.7c-3.9,0-6.6,3.4-6.6,7.4c0,4.3,2.7,7.6,6.9,7.6c1.9,0,3.7-0.7,5.1-1.9
	c0.6-0.5,1.3-0.7,2.1-0.7c1.8,0,3.3,1.5,3.3,3.3c0,0.9-0.4,1.8-1.1,2.5C294,59.5,290.5,60.8,286.9,60.6z M313.5,60.6
	c-8.4,0-14.7-6.3-14.7-14.1s6.3-14.3,14.8-14.3s14.7,6.3,14.7,14.1S322,60.6,313.5,60.6z M313.6,53.9c4.4,0,7.1-3.4,7.1-7.4
	s-2.9-7.6-7.2-7.6c-4.4,0-7.1,3.4-7.1,7.4S309.3,53.9,313.6,53.9z M331.4,56.4V36.3c0-2.1,1.7-3.9,3.9-3.9c2.1,0,3.9,1.7,3.9,3.9
	c1.8-2,4.1-4.1,8-4.1c3.2-0.2,6.2,1.5,7.7,4.3c2.1-2.8,5.4-4.4,8.9-4.3c5.8,0,9.2,3.5,9.2,10v14.2c0,2.1-1.7,3.9-3.9,3.9
	c-2.1,0-3.9-1.7-3.9-3.9V44.8c0-3.7-1.6-5.5-4.5-5.5s-4.7,1.9-4.7,5.5v11.6c0.1,2.1-1.5,4-3.7,4.1s-4-1.5-4.1-3.7c0-0.1,0-0.3,0-0.4
	V44.8c0-3.7-1.6-5.5-4.5-5.5s-4.7,1.9-4.7,5.5v11.6c0,2.1-1.7,3.9-3.9,3.9C333.1,60.3,331.4,58.6,331.4,56.4L331.4,56.4z M377,64.6
	V36.3c0-2.1,1.7-3.9,3.9-3.9c2.1,0,3.9,1.7,3.9,3.9v0.4c1.9-2.8,5.1-4.5,8.5-4.4c6.4,0,12.4,5,12.4,14.1s-5.9,14.2-12.4,14.2
	c-3.3,0.1-6.5-1.4-8.5-4.1v8.1c0,2.1-1.7,3.9-3.9,3.9C378.7,68.4,377,66.7,377,64.6z M391.2,53.9c3.6,0,6.7-3,6.7-7.5
	s-3-7.6-6.7-7.6s-6.6,3-6.6,7.5S387.6,53.9,391.2,53.9L391.2,53.9z M114.2,60.5c-3.6,0-7.2-1.1-10.3-3.1c-0.9-0.6-1.5-1.6-1.5-2.7
	c0-1.7,1.3-3,3-3c0.5,0,1.1,0.1,1.5,0.4c2.2,1.5,4.7,2.3,7.4,2.4c2.2,0,3.3-0.8,3.3-2c0-1.8-2.6-2.3-5.6-3.3
	c-3.8-1.1-8.1-2.9-8.1-8.2c0-5.6,4.5-8.7,10-8.7c2.9,0,5.8,0.8,8.4,2.1c1.1,0.5,1.8,1.7,1.8,2.9c0,1.7-1.3,3-3,3c0,0-0.1,0-0.1,0
	c-0.5,0-1-0.1-1.4-0.4c-1.8-1-3.8-1.6-5.9-1.7c-1.9,0-2.8,0.8-2.8,1.9c0,1.6,2.6,2.3,5.5,3.3c3.8,1.3,8.2,3.1,8.2,8.1
	C124.6,57.8,120.1,60.5,114.2,60.5L114.2,60.5z M152.8,36.3v20.1c-0.1,2.1-1.9,3.8-4.1,3.7c-2-0.1-3.6-1.7-3.7-3.7
	c-1.8,2-4.1,4.1-8,4.1c-5.8,0-9.3-3.9-9.3-10.1V36.3c0-2.1,1.7-3.9,3.9-3.9s3.9,1.7,3.9,3.9v11.6c0,3.7,1.7,5.5,4.7,5.5
	s4.8-1.9,4.8-5.5V36.3c0.1-2.1,1.9-3.8,4.1-3.7C151,32.7,152.6,34.3,152.8,36.3L152.8,36.3z M157.2,56.4V36.3c0-2.1,1.7-3.9,3.9-3.9
	s3.9,1.7,3.9,3.9c1.8-2,4.1-4.1,8-4.1c3.2-0.2,6.2,1.5,7.7,4.3c2.1-2.8,5.4-4.4,8.9-4.3c5.7,0,9.2,3.5,9.2,10v14.2
	c0,2.1-1.7,3.9-3.9,3.9s-3.9-1.7-3.9-3.9V44.8c0-3.7-1.6-5.5-4.5-5.5s-4.7,1.9-4.7,5.5v11.6c-0.1,2.1-1.9,3.8-4.1,3.7
	c-2-0.1-3.6-1.7-3.7-3.7V44.8c0-3.7-1.6-5.5-4.5-5.5s-4.7,1.9-4.7,5.5v11.6c0,2.1-1.7,3.9-3.9,3.9S157.2,58.6,157.2,56.4L157.2,56.4
	z M216.5,60.6c-8.4,0-14.7-6.3-14.7-14.1s6.3-14.3,14.8-14.3s14.7,6.3,14.7,14.1S224.9,60.6,216.5,60.6L216.5,60.6z M216.6,53.9
	c4.4,0,7.1-3.4,7.1-7.4s-2.9-7.6-7.2-7.6c-4.4,0-7.1,3.4-7.1,7.4S212.3,53.9,216.6,53.9L216.6,53.9z M234.6,56.4v-30
	c0.1-2.1,1.9-3.8,4.1-3.7c2,0.1,3.6,1.7,3.7,3.7v30c-0.1,2.1-1.9,3.8-4.1,3.7C236.3,60,234.7,58.4,234.6,56.4z"/>
</svg>
